<mxfile host="Electron" agent="Mozilla/5.0 (Windows NT 10.0; Win64; x64) AppleWebKit/537.36 (KHTML, like Gecko) draw.io/25.0.2 Chrome/128.0.6613.186 Electron/32.2.5 Safari/537.36" version="25.0.2">
  <diagram id="processText" name="processText">
    <mxGraphModel dx="1434" dy="2006" grid="0" gridSize="10" guides="1" tooltips="1" connect="0" arrows="1" fold="1" page="1" pageScale="1" pageWidth="827" pageHeight="1169" math="0" shadow="0">
      <root>
        <mxCell id="0" />
        <mxCell id="1" parent="0" />
        <mxCell id="oojq5FccZAZtyJ_p-6VT-668" style="edgeStyle=orthogonalEdgeStyle;rounded=0;orthogonalLoop=1;jettySize=auto;html=1;exitX=0.5;exitY=1;exitDx=0;exitDy=0;" edge="1" parent="1" source="eq5a8P7IdpTRvWQ2f0uo-19" target="oojq5FccZAZtyJ_p-6VT-3">
          <mxGeometry relative="1" as="geometry" />
        </mxCell>
        <mxCell id="eq5a8P7IdpTRvWQ2f0uo-19" value="&lt;b&gt;main()&lt;/b&gt;" style="rounded=1;whiteSpace=wrap;html=1;fillColor=#99FF99;" parent="1" vertex="1">
          <mxGeometry x="235.45" y="-1123" width="61" height="27" as="geometry" />
        </mxCell>
        <mxCell id="Ag3rg4LRfrvqD565A-uZ-129" style="edgeStyle=orthogonalEdgeStyle;rounded=0;orthogonalLoop=1;jettySize=auto;html=1;exitX=0.5;exitY=1;exitDx=0;exitDy=0;entryX=0.506;entryY=0.082;entryDx=0;entryDy=0;entryPerimeter=0;" parent="1" source="Ag3rg4LRfrvqD565A-uZ-130" target="Ag3rg4LRfrvqD565A-uZ-132" edge="1">
          <mxGeometry relative="1" as="geometry">
            <mxPoint x="378.76" y="-384.26668294270837" as="targetPoint" />
            <mxPoint x="378.76" y="-423" as="sourcePoint" />
          </mxGeometry>
        </mxCell>
        <mxCell id="Ag3rg4LRfrvqD565A-uZ-130" value="Open&amp;nbsp;&lt;br&gt;&#39;filename.txt&#39;" style="rounded=0;whiteSpace=wrap;html=1;fillColor=#f5f5f5;strokeColor=#666666;fontColor=#333333;" parent="1" vertex="1">
          <mxGeometry x="204" y="-586" width="120" height="60" as="geometry" />
        </mxCell>
        <mxCell id="Ag3rg4LRfrvqD565A-uZ-131" style="edgeStyle=orthogonalEdgeStyle;rounded=0;orthogonalLoop=1;jettySize=auto;html=1;exitX=0.5;exitY=1;exitDx=0;exitDy=0;entryX=0;entryY=0.5;entryDx=0;entryDy=0;" parent="1" source="Ag3rg4LRfrvqD565A-uZ-132" target="Ag3rg4LRfrvqD565A-uZ-133" edge="1">
          <mxGeometry relative="1" as="geometry">
            <mxPoint x="264.14" y="-391.46663411458337" as="targetPoint" />
          </mxGeometry>
        </mxCell>
        <mxCell id="oojq5FccZAZtyJ_p-6VT-960" style="edgeStyle=orthogonalEdgeStyle;rounded=0;orthogonalLoop=1;jettySize=auto;html=1;exitX=0;exitY=0.5;exitDx=0;exitDy=0;entryX=0.25;entryY=0;entryDx=0;entryDy=0;curved=1;" edge="1" parent="1" source="Ag3rg4LRfrvqD565A-uZ-132" target="oojq5FccZAZtyJ_p-6VT-762">
          <mxGeometry relative="1" as="geometry" />
        </mxCell>
        <mxCell id="Ag3rg4LRfrvqD565A-uZ-132" value="Does file open?" style="rhombus;whiteSpace=wrap;html=1;rounded=1;shadow=0;fillColor=#f5f5f5;fontColor=#333333;strokeColor=#666666;" parent="1" vertex="1">
          <mxGeometry x="207.14" y="-501" width="114" height="68" as="geometry" />
        </mxCell>
        <mxCell id="oojq5FccZAZtyJ_p-6VT-35" style="edgeStyle=orthogonalEdgeStyle;rounded=0;orthogonalLoop=1;jettySize=auto;html=1;exitX=0.5;exitY=0;exitDx=0;exitDy=0;entryX=1;entryY=0.5;entryDx=0;entryDy=0;" edge="1" parent="1" source="Ag3rg4LRfrvqD565A-uZ-133" target="oojq5FccZAZtyJ_p-6VT-26">
          <mxGeometry relative="1" as="geometry" />
        </mxCell>
        <mxCell id="Ag3rg4LRfrvqD565A-uZ-133" value="printf: &quot;[ERROR] Could not load font file. Please try again&quot;" style="rounded=1;whiteSpace=wrap;html=1;fillColor=#f8cecc;strokeColor=#b85450;" parent="1" vertex="1">
          <mxGeometry x="285" y="-409" width="332.86" height="27" as="geometry" />
        </mxCell>
        <mxCell id="Ag3rg4LRfrvqD565A-uZ-134" value="no" style="text;html=1;align=center;verticalAlign=middle;resizable=0;points=[];autosize=1;strokeColor=none;fillColor=none;" parent="1" vertex="1">
          <mxGeometry x="234.14" y="-435" width="31" height="26" as="geometry" />
        </mxCell>
        <mxCell id="oojq5FccZAZtyJ_p-6VT-7" value="" style="edgeStyle=orthogonalEdgeStyle;rounded=0;orthogonalLoop=1;jettySize=auto;html=1;" edge="1" parent="1" source="oojq5FccZAZtyJ_p-6VT-3" target="oojq5FccZAZtyJ_p-6VT-6">
          <mxGeometry relative="1" as="geometry" />
        </mxCell>
        <mxCell id="oojq5FccZAZtyJ_p-6VT-3" value="Initialise Robot:&lt;br&gt;&amp;nbsp;currentX=0&amp;nbsp;&lt;div&gt;currentY=0&lt;/div&gt;" style="rounded=1;whiteSpace=wrap;html=1;" vertex="1" parent="1">
          <mxGeometry x="205.95" y="-1073" width="120" height="60" as="geometry" />
        </mxCell>
        <mxCell id="oojq5FccZAZtyJ_p-6VT-9" value="" style="edgeStyle=orthogonalEdgeStyle;rounded=0;orthogonalLoop=1;jettySize=auto;html=1;exitX=1;exitY=0.5;exitDx=0;exitDy=0;" edge="1" parent="1" source="oojq5FccZAZtyJ_p-6VT-6" target="oojq5FccZAZtyJ_p-6VT-8">
          <mxGeometry relative="1" as="geometry" />
        </mxCell>
        <mxCell id="oojq5FccZAZtyJ_p-6VT-10" value="No" style="edgeLabel;html=1;align=center;verticalAlign=middle;resizable=0;points=[];" vertex="1" connectable="0" parent="oojq5FccZAZtyJ_p-6VT-9">
          <mxGeometry x="-0.0368" y="1" relative="1" as="geometry">
            <mxPoint as="offset" />
          </mxGeometry>
        </mxCell>
        <mxCell id="oojq5FccZAZtyJ_p-6VT-23" style="edgeStyle=orthogonalEdgeStyle;rounded=0;orthogonalLoop=1;jettySize=auto;html=1;exitX=0.5;exitY=1;exitDx=0;exitDy=0;entryX=0.5;entryY=0;entryDx=0;entryDy=0;" edge="1" parent="1" source="oojq5FccZAZtyJ_p-6VT-6" target="oojq5FccZAZtyJ_p-6VT-17">
          <mxGeometry relative="1" as="geometry" />
        </mxCell>
        <mxCell id="oojq5FccZAZtyJ_p-6VT-6" value="&quot;Can RS232 Port Be Opened?" style="rhombus;whiteSpace=wrap;html=1;rounded=1;fillColor=#f5f5f5;fontColor=#333333;strokeColor=#666666;" vertex="1" parent="1">
          <mxGeometry x="160.95" y="-981" width="210" height="59" as="geometry" />
        </mxCell>
        <mxCell id="oojq5FccZAZtyJ_p-6VT-14" value="" style="edgeStyle=orthogonalEdgeStyle;rounded=0;orthogonalLoop=1;jettySize=auto;html=1;" edge="1" parent="1" source="oojq5FccZAZtyJ_p-6VT-8" target="oojq5FccZAZtyJ_p-6VT-13">
          <mxGeometry relative="1" as="geometry" />
        </mxCell>
        <mxCell id="oojq5FccZAZtyJ_p-6VT-8" value="[ERROR] Unable to open COM port" style="whiteSpace=wrap;html=1;rounded=1;fillColor=#f8cecc;strokeColor=#b85450;" vertex="1" parent="1">
          <mxGeometry x="453" y="-964.5" width="235" height="26" as="geometry" />
        </mxCell>
        <mxCell id="oojq5FccZAZtyJ_p-6VT-13" value="Exit Program" style="whiteSpace=wrap;html=1;rounded=1;" vertex="1" parent="1">
          <mxGeometry x="744" y="-82" width="78" height="35" as="geometry" />
        </mxCell>
        <mxCell id="oojq5FccZAZtyJ_p-6VT-15" style="edgeStyle=orthogonalEdgeStyle;rounded=0;orthogonalLoop=1;jettySize=auto;html=1;exitX=0.5;exitY=1;exitDx=0;exitDy=0;entryX=0.5;entryY=0;entryDx=0;entryDy=0;" edge="1" parent="1" source="oojq5FccZAZtyJ_p-6VT-17" target="oojq5FccZAZtyJ_p-6VT-22">
          <mxGeometry relative="1" as="geometry">
            <mxPoint x="264.4000000000001" y="-800.2800439453124" as="targetPoint" />
          </mxGeometry>
        </mxCell>
        <mxCell id="oojq5FccZAZtyJ_p-6VT-16" value="printf() &amp;amp; scanf()" style="edgeLabel;html=1;align=center;verticalAlign=middle;resizable=0;points=[];" vertex="1" connectable="0" parent="oojq5FccZAZtyJ_p-6VT-15">
          <mxGeometry x="-0.0949" y="-3" relative="1" as="geometry">
            <mxPoint as="offset" />
          </mxGeometry>
        </mxCell>
        <mxCell id="oojq5FccZAZtyJ_p-6VT-17" value="Prompt user for text height&lt;br&gt;(MIN_4 : MAX_10)" style="rounded=1;whiteSpace=wrap;html=1;fillColor=#d5e8d4;strokeColor=#82b366;" vertex="1" parent="1">
          <mxGeometry x="186.55" y="-871.9999999999999" width="158" height="33" as="geometry" />
        </mxCell>
        <mxCell id="oojq5FccZAZtyJ_p-6VT-20" style="edgeStyle=orthogonalEdgeStyle;rounded=0;orthogonalLoop=1;jettySize=auto;html=1;exitX=0.5;exitY=1;exitDx=0;exitDy=0;curved=1;entryX=0.5;entryY=0;entryDx=0;entryDy=0;" edge="1" parent="1" source="oojq5FccZAZtyJ_p-6VT-22" target="oojq5FccZAZtyJ_p-6VT-26">
          <mxGeometry relative="1" as="geometry">
            <mxPoint x="119" y="-710.3599999999999" as="targetPoint" />
          </mxGeometry>
        </mxCell>
        <mxCell id="oojq5FccZAZtyJ_p-6VT-21" value="Yes" style="edgeLabel;html=1;align=center;verticalAlign=middle;resizable=0;points=[];" vertex="1" connectable="0" parent="oojq5FccZAZtyJ_p-6VT-20">
          <mxGeometry x="-0.2241" y="3" relative="1" as="geometry">
            <mxPoint x="7" y="2" as="offset" />
          </mxGeometry>
        </mxCell>
        <mxCell id="oojq5FccZAZtyJ_p-6VT-22" value="Is input height valid?" style="rhombus;whiteSpace=wrap;html=1;rounded=1;shadow=0;fillColor=#f5f5f5;fontColor=#333333;strokeColor=#666666;" vertex="1" parent="1">
          <mxGeometry x="177.5" y="-788.3599999999999" width="173" height="68" as="geometry" />
        </mxCell>
        <mxCell id="oojq5FccZAZtyJ_p-6VT-24" style="edgeStyle=orthogonalEdgeStyle;rounded=0;orthogonalLoop=1;jettySize=auto;html=1;exitX=0.5;exitY=1;exitDx=0;exitDy=0;entryX=0.5;entryY=0;entryDx=0;entryDy=0;" edge="1" parent="1" source="oojq5FccZAZtyJ_p-6VT-26" target="Ag3rg4LRfrvqD565A-uZ-130">
          <mxGeometry relative="1" as="geometry">
            <mxPoint x="266.03999999999996" y="-583" as="targetPoint" />
          </mxGeometry>
        </mxCell>
        <mxCell id="oojq5FccZAZtyJ_p-6VT-25" value="printf() &amp;amp; scanf()" style="edgeLabel;html=1;align=center;verticalAlign=middle;resizable=0;points=[];" vertex="1" connectable="0" parent="oojq5FccZAZtyJ_p-6VT-24">
          <mxGeometry x="-0.0949" y="-3" relative="1" as="geometry">
            <mxPoint as="offset" />
          </mxGeometry>
        </mxCell>
        <mxCell id="oojq5FccZAZtyJ_p-6VT-26" value="Prompt user for font file name" style="rounded=1;whiteSpace=wrap;html=1;fillColor=#d5e8d4;strokeColor=#82b366;" vertex="1" parent="1">
          <mxGeometry x="177.32999999999998" y="-675" width="172.43" height="33" as="geometry" />
        </mxCell>
        <mxCell id="Ag3rg4LRfrvqD565A-uZ-135" value="yes" style="text;html=1;align=center;verticalAlign=middle;resizable=0;points=[];autosize=1;strokeColor=none;fillColor=none;" parent="1" vertex="1">
          <mxGeometry x="161.5" y="-473" width="37" height="26" as="geometry" />
        </mxCell>
        <mxCell id="oojq5FccZAZtyJ_p-6VT-86" value="" style="edgeStyle=orthogonalEdgeStyle;rounded=0;orthogonalLoop=1;jettySize=auto;html=1;" edge="1" parent="1" source="oojq5FccZAZtyJ_p-6VT-83" target="oojq5FccZAZtyJ_p-6VT-62">
          <mxGeometry relative="1" as="geometry">
            <mxPoint x="560.5" y="1018.5" as="targetPoint" />
            <Array as="points">
              <mxPoint x="144" y="1090" />
              <mxPoint x="144" y="1090" />
            </Array>
          </mxGeometry>
        </mxCell>
        <mxCell id="oojq5FccZAZtyJ_p-6VT-698" value="printf scanf" style="edgeLabel;html=1;align=center;verticalAlign=middle;resizable=0;points=[];" vertex="1" connectable="0" parent="oojq5FccZAZtyJ_p-6VT-86">
          <mxGeometry x="-0.5684" y="2" relative="1" as="geometry">
            <mxPoint as="offset" />
          </mxGeometry>
        </mxCell>
        <mxCell id="oojq5FccZAZtyJ_p-6VT-83" value="Prompt user for text file name" style="whiteSpace=wrap;html=1;rounded=1;fillColor=#d5e8d4;strokeColor=#82b366;" vertex="1" parent="1">
          <mxGeometry x="86.99999999999999" y="978.0699999999999" width="117" height="45" as="geometry" />
        </mxCell>
        <mxCell id="oojq5FccZAZtyJ_p-6VT-84" value="" style="edgeStyle=orthogonalEdgeStyle;rounded=0;orthogonalLoop=1;jettySize=auto;html=1;exitX=0.5;exitY=1;exitDx=0;exitDy=0;" edge="1" parent="1" source="oojq5FccZAZtyJ_p-6VT-788" target="oojq5FccZAZtyJ_p-6VT-83">
          <mxGeometry relative="1" as="geometry">
            <mxPoint x="491.875" y="876.875" as="targetPoint" />
            <mxPoint x="438.5" y="817" as="sourcePoint" />
            <Array as="points">
              <mxPoint x="488" y="963" />
              <mxPoint x="146" y="963" />
            </Array>
          </mxGeometry>
        </mxCell>
        <mxCell id="oojq5FccZAZtyJ_p-6VT-171" value="data passed:&lt;br&gt;textfile name, font data, text height" style="shape=parallelogram;perimeter=parallelogramPerimeter;whiteSpace=wrap;html=1;fixedSize=1;fillColor=#e1d5e7;strokeColor=#9673a6;" vertex="1" parent="1">
          <mxGeometry x="62.999999999999986" y="1061" width="225" height="35" as="geometry" />
        </mxCell>
        <mxCell id="oojq5FccZAZtyJ_p-6VT-699" style="edgeStyle=orthogonalEdgeStyle;rounded=0;orthogonalLoop=1;jettySize=auto;html=1;exitX=0.914;exitY=0;exitDx=0;exitDy=0;exitPerimeter=0;" edge="1" parent="1" source="oojq5FccZAZtyJ_p-6VT-62" target="oojq5FccZAZtyJ_p-6VT-700">
          <mxGeometry relative="1" as="geometry">
            <mxPoint x="746" y="1074" as="targetPoint" />
            <Array as="points">
              <mxPoint x="720" y="1124" />
            </Array>
          </mxGeometry>
        </mxCell>
        <mxCell id="oojq5FccZAZtyJ_p-6VT-701" value="&lt;b&gt;processTextFile&lt;br&gt;&lt;/b&gt;Returns !=SUCCESS" style="edgeLabel;html=1;align=center;verticalAlign=middle;resizable=0;points=[];" vertex="1" connectable="0" parent="oojq5FccZAZtyJ_p-6VT-699">
          <mxGeometry x="0.2339" relative="1" as="geometry">
            <mxPoint as="offset" />
          </mxGeometry>
        </mxCell>
        <mxCell id="oojq5FccZAZtyJ_p-6VT-62" value="processTextFile()" style="swimlane;whiteSpace=wrap;html=1;fillColor=#ffe6cc;strokeColor=#d79b00;startSize=23;" vertex="1" parent="1">
          <mxGeometry x="28" y="1123" width="792" height="4149" as="geometry" />
        </mxCell>
        <mxCell id="oojq5FccZAZtyJ_p-6VT-89" style="edgeStyle=orthogonalEdgeStyle;rounded=0;orthogonalLoop=1;jettySize=auto;html=1;exitX=0.5;exitY=1;exitDx=0;exitDy=0;entryX=0.506;entryY=0.082;entryDx=0;entryDy=0;entryPerimeter=0;" edge="1" parent="oojq5FccZAZtyJ_p-6VT-62" source="oojq5FccZAZtyJ_p-6VT-90" target="oojq5FccZAZtyJ_p-6VT-92">
          <mxGeometry relative="1" as="geometry">
            <mxPoint x="430.45" y="278.7333170572915" as="targetPoint" />
            <mxPoint x="430.45" y="240" as="sourcePoint" />
          </mxGeometry>
        </mxCell>
        <mxCell id="oojq5FccZAZtyJ_p-6VT-130" value="file = fopen(filename, &#39;r&#39;)" style="edgeLabel;html=1;align=center;verticalAlign=middle;resizable=0;points=[];" vertex="1" connectable="0" parent="oojq5FccZAZtyJ_p-6VT-89">
          <mxGeometry x="-0.2347" y="3" relative="1" as="geometry">
            <mxPoint as="offset" />
          </mxGeometry>
        </mxCell>
        <mxCell id="oojq5FccZAZtyJ_p-6VT-90" value="Open&amp;nbsp;&lt;br&gt;&#39;filename.txt&#39;" style="rounded=0;whiteSpace=wrap;html=1;fillColor=#f5f5f5;strokeColor=#666666;fontColor=#333333;" vertex="1" parent="oojq5FccZAZtyJ_p-6VT-62">
          <mxGeometry x="255.82999999999998" y="35" width="120" height="60" as="geometry" />
        </mxCell>
        <mxCell id="oojq5FccZAZtyJ_p-6VT-91" style="edgeStyle=orthogonalEdgeStyle;rounded=0;orthogonalLoop=1;jettySize=auto;html=1;exitX=0.5;exitY=1;exitDx=0;exitDy=0;entryX=0;entryY=0.5;entryDx=0;entryDy=0;" edge="1" parent="oojq5FccZAZtyJ_p-6VT-62" source="oojq5FccZAZtyJ_p-6VT-92" target="oojq5FccZAZtyJ_p-6VT-93">
          <mxGeometry relative="1" as="geometry">
            <mxPoint x="315.83" y="271.5333658854165" as="targetPoint" />
          </mxGeometry>
        </mxCell>
        <mxCell id="oojq5FccZAZtyJ_p-6VT-606" value="if (!file)" style="edgeLabel;html=1;align=center;verticalAlign=middle;resizable=0;points=[];" vertex="1" connectable="0" parent="oojq5FccZAZtyJ_p-6VT-91">
          <mxGeometry x="-0.687" y="2" relative="1" as="geometry">
            <mxPoint as="offset" />
          </mxGeometry>
        </mxCell>
        <mxCell id="oojq5FccZAZtyJ_p-6VT-97" value="" style="edgeStyle=orthogonalEdgeStyle;rounded=0;orthogonalLoop=1;jettySize=auto;html=1;exitX=0;exitY=0.5;exitDx=0;exitDy=0;" edge="1" parent="oojq5FccZAZtyJ_p-6VT-62" source="oojq5FccZAZtyJ_p-6VT-92" target="oojq5FccZAZtyJ_p-6VT-96">
          <mxGeometry relative="1" as="geometry" />
        </mxCell>
        <mxCell id="oojq5FccZAZtyJ_p-6VT-92" value="Does file open?" style="rhombus;whiteSpace=wrap;html=1;rounded=1;shadow=0;fillColor=#f5f5f5;fontColor=#333333;strokeColor=#666666;" vertex="1" parent="oojq5FccZAZtyJ_p-6VT-62">
          <mxGeometry x="258.83" y="162" width="114" height="68" as="geometry" />
        </mxCell>
        <mxCell id="oojq5FccZAZtyJ_p-6VT-133" value="" style="edgeStyle=orthogonalEdgeStyle;rounded=0;orthogonalLoop=1;jettySize=auto;html=1;" edge="1" parent="oojq5FccZAZtyJ_p-6VT-62" source="oojq5FccZAZtyJ_p-6VT-93" target="oojq5FccZAZtyJ_p-6VT-132">
          <mxGeometry relative="1" as="geometry" />
        </mxCell>
        <mxCell id="oojq5FccZAZtyJ_p-6VT-93" value="printf: &quot;&lt;span style=&quot;color: rgb(206, 145, 120); background-color: rgb(31, 31, 31); font-family: Consolas, &amp;quot;Courier New&amp;quot;, monospace; font-size: 14px; white-space: pre;&quot;&gt;[ERROR] Could not open text file&lt;/span&gt;&lt;span style=&quot;background-color: initial;&quot;&gt;&quot;&lt;/span&gt;" style="rounded=1;whiteSpace=wrap;html=1;fillColor=#f8cecc;strokeColor=#b85450;" vertex="1" parent="oojq5FccZAZtyJ_p-6VT-62">
          <mxGeometry x="336.69" y="254" width="332.86" height="27" as="geometry" />
        </mxCell>
        <mxCell id="oojq5FccZAZtyJ_p-6VT-94" value="no" style="text;html=1;align=center;verticalAlign=middle;resizable=0;points=[];autosize=1;strokeColor=none;fillColor=none;" vertex="1" parent="oojq5FccZAZtyJ_p-6VT-62">
          <mxGeometry x="288" y="249" width="31" height="26" as="geometry" />
        </mxCell>
        <mxCell id="oojq5FccZAZtyJ_p-6VT-95" value="yes" style="text;html=1;align=center;verticalAlign=middle;resizable=0;points=[];autosize=1;strokeColor=none;fillColor=none;" vertex="1" parent="oojq5FccZAZtyJ_p-6VT-62">
          <mxGeometry x="178" y="186" width="37" height="26" as="geometry" />
        </mxCell>
        <mxCell id="oojq5FccZAZtyJ_p-6VT-96" value="Start/Initialise Word processing loop" style="whiteSpace=wrap;html=1;rounded=1;shadow=0;" vertex="1" parent="oojq5FccZAZtyJ_p-6VT-62">
          <mxGeometry x="148" y="287" width="120" height="60" as="geometry" />
        </mxCell>
        <mxCell id="oojq5FccZAZtyJ_p-6VT-100" value="Add space for next word&lt;br&gt;currentX = currentX + height" style="whiteSpace=wrap;html=1;rounded=1;shadow=0;" vertex="1" parent="oojq5FccZAZtyJ_p-6VT-62">
          <mxGeometry x="449" y="549.5" width="175" height="45" as="geometry" />
        </mxCell>
        <mxCell id="oojq5FccZAZtyJ_p-6VT-132" value="Return EXIT_FAILURE" style="whiteSpace=wrap;html=1;fillColor=#f8cecc;strokeColor=#b85450;rounded=1;" vertex="1" parent="oojq5FccZAZtyJ_p-6VT-62">
          <mxGeometry x="443.12" y="309" width="120" height="60" as="geometry" />
        </mxCell>
        <mxCell id="oojq5FccZAZtyJ_p-6VT-278" style="edgeStyle=orthogonalEdgeStyle;rounded=0;orthogonalLoop=1;jettySize=auto;html=1;exitX=1;exitY=1;exitDx=0;exitDy=0;entryX=0.5;entryY=0;entryDx=0;entryDy=0;curved=1;" edge="1" parent="oojq5FccZAZtyJ_p-6VT-62" source="oojq5FccZAZtyJ_p-6VT-279" target="oojq5FccZAZtyJ_p-6VT-281">
          <mxGeometry relative="1" as="geometry" />
        </mxCell>
        <mxCell id="oojq5FccZAZtyJ_p-6VT-279" value="Check for Space/NewLine" style="rounded=1;whiteSpace=wrap;html=1;" vertex="1" parent="oojq5FccZAZtyJ_p-6VT-62">
          <mxGeometry x="362" y="645" width="105" height="34" as="geometry" />
        </mxCell>
        <mxCell id="oojq5FccZAZtyJ_p-6VT-280" style="edgeStyle=orthogonalEdgeStyle;rounded=0;orthogonalLoop=1;jettySize=auto;html=1;exitX=0.5;exitY=1;exitDx=0;exitDy=0;curved=1;entryX=0.538;entryY=0.098;entryDx=0;entryDy=0;entryPerimeter=0;" edge="1" parent="oojq5FccZAZtyJ_p-6VT-62" source="oojq5FccZAZtyJ_p-6VT-609" target="oojq5FccZAZtyJ_p-6VT-283">
          <mxGeometry relative="1" as="geometry">
            <mxPoint x="481.5833333333335" y="882" as="targetPoint" />
          </mxGeometry>
        </mxCell>
        <mxCell id="oojq5FccZAZtyJ_p-6VT-611" value="word[wordIndex] = &#39;\0&#39;;" style="edgeLabel;html=1;align=center;verticalAlign=middle;resizable=0;points=[];" vertex="1" connectable="0" parent="oojq5FccZAZtyJ_p-6VT-280">
          <mxGeometry x="-0.3206" y="-1" relative="1" as="geometry">
            <mxPoint as="offset" />
          </mxGeometry>
        </mxCell>
        <mxCell id="oojq5FccZAZtyJ_p-6VT-281" value="IsSpace/NewLine" style="rounded=1;whiteSpace=wrap;html=1;" vertex="1" parent="oojq5FccZAZtyJ_p-6VT-62">
          <mxGeometry x="430.35" y="717" width="115.65" height="31" as="geometry" />
        </mxCell>
        <mxCell id="oojq5FccZAZtyJ_p-6VT-282" style="edgeStyle=orthogonalEdgeStyle;rounded=0;orthogonalLoop=1;jettySize=auto;html=1;exitX=0;exitY=1;exitDx=0;exitDy=0;curved=1;" edge="1" parent="oojq5FccZAZtyJ_p-6VT-62" source="oojq5FccZAZtyJ_p-6VT-279" target="oojq5FccZAZtyJ_p-6VT-286">
          <mxGeometry relative="1" as="geometry">
            <mxPoint x="285.9354838709677" y="917.9032494329635" as="targetPoint" />
            <mxPoint x="287" y="705" as="sourcePoint" />
          </mxGeometry>
        </mxCell>
        <mxCell id="oojq5FccZAZtyJ_p-6VT-283" value="Pass word to processWord" style="rounded=1;whiteSpace=wrap;html=1;" vertex="1" parent="oojq5FccZAZtyJ_p-6VT-62">
          <mxGeometry x="363.17" y="905" width="80.65" height="45" as="geometry" />
        </mxCell>
        <mxCell id="oojq5FccZAZtyJ_p-6VT-284" style="edgeStyle=orthogonalEdgeStyle;rounded=0;orthogonalLoop=1;jettySize=auto;html=1;exitX=0.5;exitY=1;exitDx=0;exitDy=0;entryX=0;entryY=0.5;entryDx=0;entryDy=0;" edge="1" parent="oojq5FccZAZtyJ_p-6VT-62" source="oojq5FccZAZtyJ_p-6VT-286" target="oojq5FccZAZtyJ_p-6VT-289">
          <mxGeometry relative="1" as="geometry" />
        </mxCell>
        <mxCell id="oojq5FccZAZtyJ_p-6VT-285" value="add character to the word" style="edgeLabel;html=1;align=center;verticalAlign=middle;resizable=0;points=[];" vertex="1" connectable="0" parent="oojq5FccZAZtyJ_p-6VT-284">
          <mxGeometry x="-0.2037" y="-1" relative="1" as="geometry">
            <mxPoint x="10" y="-30" as="offset" />
          </mxGeometry>
        </mxCell>
        <mxCell id="oojq5FccZAZtyJ_p-6VT-608" value="word[wordIndex++] = currentChar" style="edgeLabel;html=1;align=center;verticalAlign=middle;resizable=0;points=[];" vertex="1" connectable="0" parent="oojq5FccZAZtyJ_p-6VT-284">
          <mxGeometry x="-0.3828" y="-1" relative="1" as="geometry">
            <mxPoint as="offset" />
          </mxGeometry>
        </mxCell>
        <mxCell id="oojq5FccZAZtyJ_p-6VT-286" value="IsLetter" style="rounded=1;whiteSpace=wrap;html=1;" vertex="1" parent="oojq5FccZAZtyJ_p-6VT-62">
          <mxGeometry x="248.00000000000003" y="717" width="81" height="39" as="geometry" />
        </mxCell>
        <mxCell id="oojq5FccZAZtyJ_p-6VT-287" style="edgeStyle=orthogonalEdgeStyle;rounded=0;orthogonalLoop=1;jettySize=auto;html=1;curved=1;entryX=0.5;entryY=1;entryDx=0;entryDy=0;" edge="1" parent="oojq5FccZAZtyJ_p-6VT-62" target="oojq5FccZAZtyJ_p-6VT-279" source="oojq5FccZAZtyJ_p-6VT-289">
          <mxGeometry relative="1" as="geometry">
            <mxPoint x="362" y="834" as="sourcePoint" />
            <mxPoint x="399" y="715" as="targetPoint" />
            <Array as="points">
              <mxPoint x="390" y="748" />
              <mxPoint x="415" y="748" />
            </Array>
          </mxGeometry>
        </mxCell>
        <mxCell id="oojq5FccZAZtyJ_p-6VT-288" value="Check next char" style="edgeLabel;html=1;align=center;verticalAlign=middle;resizable=0;points=[];" vertex="1" connectable="0" parent="oojq5FccZAZtyJ_p-6VT-287">
          <mxGeometry x="0.4267" relative="1" as="geometry">
            <mxPoint x="-5" y="74" as="offset" />
          </mxGeometry>
        </mxCell>
        <mxCell id="oojq5FccZAZtyJ_p-6VT-289" value="&lt;span style=&quot;font-size: 11px; text-wrap: nowrap; background-color: rgb(255, 255, 255);&quot;&gt;word[i] = currentChar&lt;/span&gt;" style="whiteSpace=wrap;html=1;rounded=1;" vertex="1" parent="oojq5FccZAZtyJ_p-6VT-62">
          <mxGeometry x="311.7" y="820" width="118.65" height="32.5" as="geometry" />
        </mxCell>
        <mxCell id="oojq5FccZAZtyJ_p-6VT-291" style="edgeStyle=orthogonalEdgeStyle;rounded=0;orthogonalLoop=1;jettySize=auto;html=1;exitX=0.5;exitY=1;exitDx=0;exitDy=0;entryX=0.5;entryY=0;entryDx=0;entryDy=0;" edge="1" parent="oojq5FccZAZtyJ_p-6VT-62" target="oojq5FccZAZtyJ_p-6VT-279">
          <mxGeometry relative="1" as="geometry">
            <mxPoint x="413.5" y="629.0000000000005" as="sourcePoint" />
          </mxGeometry>
        </mxCell>
        <mxCell id="eq5a8P7IdpTRvWQ2f0uo-113" value="&lt;p class=&quot;MsoNormal&quot;&gt;&lt;span style=&quot;line-height: 110%;&quot;&gt;&lt;font style=&quot;font-size: 14px;&quot;&gt;call: processWord()&lt;/font&gt;&lt;font color=&quot;#4472c4&quot;&gt;&lt;span style=&quot;font-size: 12pt; font-size: 12pt;&quot;&gt;&lt;/span&gt;&lt;/font&gt;&lt;/span&gt;&lt;/p&gt;" style="swimlane;whiteSpace=wrap;html=1;fillColor=#dae8fc;strokeColor=#6c8ebf;" parent="oojq5FccZAZtyJ_p-6VT-62" vertex="1">
          <mxGeometry x="16" y="1018" width="737" height="2983" as="geometry" />
        </mxCell>
        <mxCell id="oojq5FccZAZtyJ_p-6VT-583" style="edgeStyle=orthogonalEdgeStyle;rounded=0;orthogonalLoop=1;jettySize=auto;html=1;exitX=0.75;exitY=0;exitDx=0;exitDy=0;entryX=0.5;entryY=1;entryDx=0;entryDy=0;" edge="1" parent="eq5a8P7IdpTRvWQ2f0uo-113" source="eq5a8P7IdpTRvWQ2f0uo-128" target="oojq5FccZAZtyJ_p-6VT-966">
          <mxGeometry relative="1" as="geometry">
            <mxPoint x="472.5185185185185" y="2169" as="targetPoint" />
          </mxGeometry>
        </mxCell>
        <mxCell id="eq5a8P7IdpTRvWQ2f0uo-128" value="Call: generateGCodeForCharacter()" style="swimlane;whiteSpace=wrap;html=1;fillColor=#f8cecc;strokeColor=#b85450;gradientColor=#ea6b66;" parent="eq5a8P7IdpTRvWQ2f0uo-113" vertex="1">
          <mxGeometry x="20.5" y="2142" width="673.5" height="820" as="geometry">
            <mxRectangle x="46" y="715" width="156" height="26" as="alternateBounds" />
          </mxGeometry>
        </mxCell>
        <mxCell id="oojq5FccZAZtyJ_p-6VT-621" style="edgeStyle=orthogonalEdgeStyle;rounded=0;orthogonalLoop=1;jettySize=auto;html=1;exitX=1;exitY=0.5;exitDx=0;exitDy=0;" edge="1" parent="eq5a8P7IdpTRvWQ2f0uo-128" source="oojq5FccZAZtyJ_p-6VT-623" target="oojq5FccZAZtyJ_p-6VT-624">
          <mxGeometry relative="1" as="geometry" />
        </mxCell>
        <mxCell id="oojq5FccZAZtyJ_p-6VT-622" value="INVALID" style="edgeLabel;html=1;align=center;verticalAlign=middle;resizable=0;points=[];" vertex="1" connectable="0" parent="oojq5FccZAZtyJ_p-6VT-621">
          <mxGeometry x="-0.1526" y="-1" relative="1" as="geometry">
            <mxPoint as="offset" />
          </mxGeometry>
        </mxCell>
        <mxCell id="oojq5FccZAZtyJ_p-6VT-623" value="Valid Parameters?" style="rhombus;whiteSpace=wrap;html=1;rounded=1;" vertex="1" parent="eq5a8P7IdpTRvWQ2f0uo-128">
          <mxGeometry x="15.709999999999987" y="40" width="148.83" height="80" as="geometry" />
        </mxCell>
        <mxCell id="oojq5FccZAZtyJ_p-6VT-624" value="printf([ERROR] Invalid parameters in generateGCodeForCharacter)" style="rounded=1;whiteSpace=wrap;html=1;fillColor=#f5f5f5;strokeColor=#666666;fontColor=#333333;" vertex="1" parent="eq5a8P7IdpTRvWQ2f0uo-128">
          <mxGeometry x="247.04" y="61.5" width="214.96" height="36" as="geometry" />
        </mxCell>
        <mxCell id="oojq5FccZAZtyJ_p-6VT-625" value="&lt;font style=&quot;font-size: 10px;&quot;&gt;Return EXIT_INVALID_PARAMS&lt;/font&gt;" style="whiteSpace=wrap;html=1;fillColor=#f8cecc;strokeColor=#b85450;rounded=1;" vertex="1" parent="eq5a8P7IdpTRvWQ2f0uo-128">
          <mxGeometry x="484.5" y="61.5" width="123.96" height="37.75" as="geometry" />
        </mxCell>
        <mxCell id="oojq5FccZAZtyJ_p-6VT-626" value="" style="edgeStyle=orthogonalEdgeStyle;rounded=0;orthogonalLoop=1;jettySize=auto;html=1;exitX=1;exitY=0.5;exitDx=0;exitDy=0;" edge="1" parent="eq5a8P7IdpTRvWQ2f0uo-128" source="oojq5FccZAZtyJ_p-6VT-624" target="oojq5FccZAZtyJ_p-6VT-625">
          <mxGeometry relative="1" as="geometry">
            <mxPoint x="382.55724137931026" y="90.99999999999955" as="sourcePoint" />
          </mxGeometry>
        </mxCell>
        <mxCell id="oojq5FccZAZtyJ_p-6VT-628" style="edgeStyle=orthogonalEdgeStyle;rounded=0;orthogonalLoop=1;jettySize=auto;html=1;exitX=1;exitY=0.5;exitDx=0;exitDy=0;" edge="1" parent="eq5a8P7IdpTRvWQ2f0uo-128" source="oojq5FccZAZtyJ_p-6VT-630" target="oojq5FccZAZtyJ_p-6VT-631">
          <mxGeometry relative="1" as="geometry" />
        </mxCell>
        <mxCell id="oojq5FccZAZtyJ_p-6VT-629" value="INVALID" style="edgeLabel;html=1;align=center;verticalAlign=middle;resizable=0;points=[];" vertex="1" connectable="0" parent="oojq5FccZAZtyJ_p-6VT-628">
          <mxGeometry x="-0.1526" y="-1" relative="1" as="geometry">
            <mxPoint as="offset" />
          </mxGeometry>
        </mxCell>
        <mxCell id="oojq5FccZAZtyJ_p-6VT-640" style="edgeStyle=orthogonalEdgeStyle;rounded=0;orthogonalLoop=1;jettySize=auto;html=1;exitX=0.5;exitY=1;exitDx=0;exitDy=0;" edge="1" parent="eq5a8P7IdpTRvWQ2f0uo-128" source="oojq5FccZAZtyJ_p-6VT-630" target="oojq5FccZAZtyJ_p-6VT-643">
          <mxGeometry relative="1" as="geometry">
            <mxPoint x="90.28571428571433" y="374.1428571428569" as="targetPoint" />
          </mxGeometry>
        </mxCell>
        <mxCell id="oojq5FccZAZtyJ_p-6VT-641" value="Valid" style="edgeLabel;html=1;align=center;verticalAlign=middle;resizable=0;points=[];" vertex="1" connectable="0" parent="oojq5FccZAZtyJ_p-6VT-640">
          <mxGeometry x="-0.1801" relative="1" as="geometry">
            <mxPoint as="offset" />
          </mxGeometry>
        </mxCell>
        <mxCell id="oojq5FccZAZtyJ_p-6VT-630" value="Validate Stroke Data" style="rhombus;whiteSpace=wrap;html=1;rounded=1;" vertex="1" parent="eq5a8P7IdpTRvWQ2f0uo-128">
          <mxGeometry x="15.71" y="234" width="148.83" height="68" as="geometry" />
        </mxCell>
        <mxCell id="oojq5FccZAZtyJ_p-6VT-631" value="printf([WArNING] No stroke data for charcter &#39;%c)" style="rounded=1;whiteSpace=wrap;html=1;fillColor=#f5f5f5;strokeColor=#666666;fontColor=#333333;" vertex="1" parent="eq5a8P7IdpTRvWQ2f0uo-128">
          <mxGeometry x="232" y="254.5" width="322" height="27" as="geometry" />
        </mxCell>
        <mxCell id="oojq5FccZAZtyJ_p-6VT-632" value="&lt;font style=&quot;font-size: 10px;&quot;&gt;Return EXIT_NO_STROKE_DATA&lt;/font&gt;" style="whiteSpace=wrap;html=1;fillColor=#f8cecc;strokeColor=#b85450;rounded=1;" vertex="1" parent="eq5a8P7IdpTRvWQ2f0uo-128">
          <mxGeometry x="487.99999999999994" y="302" width="174" height="32.25" as="geometry" />
        </mxCell>
        <mxCell id="oojq5FccZAZtyJ_p-6VT-633" value="" style="edgeStyle=orthogonalEdgeStyle;rounded=0;orthogonalLoop=1;jettySize=auto;html=1;exitX=1;exitY=0.5;exitDx=0;exitDy=0;" edge="1" parent="eq5a8P7IdpTRvWQ2f0uo-128" source="oojq5FccZAZtyJ_p-6VT-631" target="oojq5FccZAZtyJ_p-6VT-632">
          <mxGeometry relative="1" as="geometry">
            <mxPoint x="386.51724137931024" y="279.5" as="sourcePoint" />
            <mxPoint x="597.9999999999998" y="268.038461538461" as="targetPoint" />
          </mxGeometry>
        </mxCell>
        <mxCell id="oojq5FccZAZtyJ_p-6VT-634" style="edgeStyle=orthogonalEdgeStyle;rounded=0;orthogonalLoop=1;jettySize=auto;html=1;exitX=0.5;exitY=1;exitDx=0;exitDy=0;entryX=0.501;entryY=0.04;entryDx=0;entryDy=0;entryPerimeter=0;" edge="1" parent="eq5a8P7IdpTRvWQ2f0uo-128" source="oojq5FccZAZtyJ_p-6VT-635" target="oojq5FccZAZtyJ_p-6VT-630">
          <mxGeometry relative="1" as="geometry" />
        </mxCell>
        <mxCell id="oojq5FccZAZtyJ_p-6VT-642" value="struct CharacterData* charData = &amp;amp;font-&amp;gt;characters[(int)c];" style="edgeLabel;html=1;align=center;verticalAlign=middle;resizable=0;points=[];" vertex="1" connectable="0" parent="oojq5FccZAZtyJ_p-6VT-634">
          <mxGeometry x="-0.3046" y="-2" relative="1" as="geometry">
            <mxPoint x="85" y="5" as="offset" />
          </mxGeometry>
        </mxCell>
        <mxCell id="oojq5FccZAZtyJ_p-6VT-636" value="" style="edgeStyle=orthogonalEdgeStyle;rounded=0;orthogonalLoop=1;jettySize=auto;html=1;exitX=0.5;exitY=1;exitDx=0;exitDy=0;entryX=0.501;entryY=0.04;entryDx=0;entryDy=0;entryPerimeter=0;" edge="1" parent="eq5a8P7IdpTRvWQ2f0uo-128" source="oojq5FccZAZtyJ_p-6VT-623" target="oojq5FccZAZtyJ_p-6VT-635">
          <mxGeometry relative="1" as="geometry">
            <mxPoint x="159" y="4024" as="sourcePoint" />
            <mxPoint x="159" y="4052" as="targetPoint" />
          </mxGeometry>
        </mxCell>
        <mxCell id="oojq5FccZAZtyJ_p-6VT-637" value="Valid" style="edgeLabel;html=1;align=center;verticalAlign=middle;resizable=0;points=[];" vertex="1" connectable="0" parent="oojq5FccZAZtyJ_p-6VT-636">
          <mxGeometry x="-0.4391" y="-3" relative="1" as="geometry">
            <mxPoint as="offset" />
          </mxGeometry>
        </mxCell>
        <mxCell id="oojq5FccZAZtyJ_p-6VT-635" value="Get Character&amp;nbsp;&lt;br&gt;Data" style="rounded=1;whiteSpace=wrap;html=1;" vertex="1" parent="eq5a8P7IdpTRvWQ2f0uo-128">
          <mxGeometry x="46.62000000000006" y="154" width="87" height="34" as="geometry" />
        </mxCell>
        <mxCell id="oojq5FccZAZtyJ_p-6VT-638" value="&lt;div style=&quot;color: rgb(204, 204, 204); background-color: rgb(31, 31, 31); font-family: Consolas, &amp;quot;Courier New&amp;quot;, monospace; line-height: 19px; white-space-collapse: preserve;&quot;&gt;&lt;font style=&quot;font-size: 9px;&quot;&gt;&lt;span style=&quot;color: rgb(197, 134, 192);&quot;&gt;if&lt;/span&gt; (&lt;span style=&quot;color: rgb(212, 212, 212);&quot;&gt;!&lt;/span&gt;&lt;span style=&quot;color: rgb(156, 220, 254);&quot;&gt;font&lt;/span&gt; &lt;span style=&quot;color: rgb(212, 212, 212);&quot;&gt;||&lt;/span&gt; &lt;span style=&quot;color: rgb(212, 212, 212);&quot;&gt;!&lt;/span&gt;&lt;span style=&quot;color: rgb(156, 220, 254);&quot;&gt;currentX&lt;/span&gt; &lt;span style=&quot;color: rgb(212, 212, 212);&quot;&gt;||&lt;/span&gt; &lt;span style=&quot;color: rgb(212, 212, 212);&quot;&gt;!&lt;/span&gt;&lt;span style=&quot;color: rgb(156, 220, 254);&quot;&gt;baselineY&lt;/span&gt; &lt;span style=&quot;color: rgb(212, 212, 212);&quot;&gt;||&lt;/span&gt; &lt;span style=&quot;color: rgb(156, 220, 254);&quot;&gt;height&lt;/span&gt; &lt;span style=&quot;color: rgb(212, 212, 212);&quot;&gt;&amp;lt;&lt;/span&gt; &lt;span style=&quot;color: rgb(181, 206, 168);&quot;&gt;4.0f&lt;/span&gt; &lt;span style=&quot;color: rgb(212, 212, 212);&quot;&gt;||&lt;/span&gt; &lt;span style=&quot;color: rgb(156, 220, 254);&quot;&gt;height&lt;/span&gt; &lt;span style=&quot;color: rgb(212, 212, 212);&quot;&gt;&amp;gt;&lt;/span&gt; &lt;span style=&quot;color: rgb(181, 206, 168);&quot;&gt;10.0f&lt;/span&gt;)&lt;/font&gt;&lt;/div&gt;" style="text;html=1;align=center;verticalAlign=middle;resizable=0;points=[];autosize=1;strokeColor=none;fillColor=none;" vertex="1" parent="eq5a8P7IdpTRvWQ2f0uo-128">
          <mxGeometry x="133.62" y="94" width="374" height="32" as="geometry" />
        </mxCell>
        <mxCell id="oojq5FccZAZtyJ_p-6VT-639" value="&lt;div style=&quot;color: rgb(204, 204, 204); background-color: rgb(31, 31, 31); font-family: Consolas, &amp;quot;Courier New&amp;quot;, monospace; line-height: 19px; white-space-collapse: preserve;&quot;&gt;&lt;font style=&quot;font-size: 10px;&quot;&gt;&lt;span style=&quot;color: rgb(197, 134, 192);&quot;&gt;if&lt;/span&gt; (&lt;span style=&quot;color: rgb(212, 212, 212);&quot;&gt;!&lt;/span&gt;&lt;span style=&quot;color: rgb(156, 220, 254);&quot;&gt;charData&lt;/span&gt; &lt;span style=&quot;color: rgb(212, 212, 212);&quot;&gt;||&lt;/span&gt; &lt;span style=&quot;color: rgb(156, 220, 254);&quot;&gt;charData&lt;/span&gt;-&amp;gt;&lt;span style=&quot;color: rgb(156, 220, 254);&quot;&gt;numStrokes&lt;/span&gt; &lt;span style=&quot;color: rgb(212, 212, 212);&quot;&gt;&amp;lt;=&lt;/span&gt; &lt;span style=&quot;color: rgb(181, 206, 168);&quot;&gt;0&lt;/span&gt;)&lt;/font&gt;&lt;/div&gt;" style="text;html=1;align=center;verticalAlign=middle;resizable=0;points=[];autosize=1;strokeColor=none;fillColor=none;" vertex="1" parent="eq5a8P7IdpTRvWQ2f0uo-128">
          <mxGeometry x="133.62" y="275" width="254" height="32" as="geometry" />
        </mxCell>
        <mxCell id="oojq5FccZAZtyJ_p-6VT-645" value="" style="edgeStyle=orthogonalEdgeStyle;rounded=0;orthogonalLoop=1;jettySize=auto;html=1;" edge="1" parent="eq5a8P7IdpTRvWQ2f0uo-128" source="oojq5FccZAZtyJ_p-6VT-643" target="oojq5FccZAZtyJ_p-6VT-644">
          <mxGeometry relative="1" as="geometry" />
        </mxCell>
        <mxCell id="oojq5FccZAZtyJ_p-6VT-650" value="for (int i = 0; i &amp;lt; charData-&amp;gt;numStrokes; i++) { ... }" style="edgeLabel;html=1;align=center;verticalAlign=middle;resizable=0;points=[];" vertex="1" connectable="0" parent="oojq5FccZAZtyJ_p-6VT-645">
          <mxGeometry x="-0.2836" y="-1" relative="1" as="geometry">
            <mxPoint x="49" y="33" as="offset" />
          </mxGeometry>
        </mxCell>
        <mxCell id="oojq5FccZAZtyJ_p-6VT-651" value="Loop through each stroke &lt;br&gt;in the character and calculate scaled &lt;br&gt;coordinates for G-code generation" style="edgeLabel;html=1;align=center;verticalAlign=middle;resizable=0;points=[];" vertex="1" connectable="0" parent="oojq5FccZAZtyJ_p-6VT-645">
          <mxGeometry x="-0.4371" y="-1" relative="1" as="geometry">
            <mxPoint x="23" y="3" as="offset" />
          </mxGeometry>
        </mxCell>
        <mxCell id="oojq5FccZAZtyJ_p-6VT-643" value="Process Strokes" style="rounded=1;whiteSpace=wrap;html=1;" vertex="1" parent="eq5a8P7IdpTRvWQ2f0uo-128">
          <mxGeometry x="46.63" y="364" width="92.37" height="34" as="geometry" />
        </mxCell>
        <mxCell id="oojq5FccZAZtyJ_p-6VT-647" value="" style="edgeStyle=orthogonalEdgeStyle;rounded=0;orthogonalLoop=1;jettySize=auto;html=1;" edge="1" parent="eq5a8P7IdpTRvWQ2f0uo-128" source="oojq5FccZAZtyJ_p-6VT-644" target="oojq5FccZAZtyJ_p-6VT-646">
          <mxGeometry relative="1" as="geometry" />
        </mxCell>
        <mxCell id="oojq5FccZAZtyJ_p-6VT-652" value="sprintf(buffer, &quot;G1 X%.2f Y%.2f ...&quot;);" style="edgeLabel;html=1;align=center;verticalAlign=middle;resizable=0;points=[];" vertex="1" connectable="0" parent="oojq5FccZAZtyJ_p-6VT-647">
          <mxGeometry x="-0.1234" y="-2" relative="1" as="geometry">
            <mxPoint as="offset" />
          </mxGeometry>
        </mxCell>
        <mxCell id="oojq5FccZAZtyJ_p-6VT-644" value="Generate G-Code Command" style="whiteSpace=wrap;html=1;rounded=1;" vertex="1" parent="eq5a8P7IdpTRvWQ2f0uo-128">
          <mxGeometry x="32.82" y="491" width="120" height="44" as="geometry" />
        </mxCell>
        <mxCell id="oojq5FccZAZtyJ_p-6VT-649" value="" style="edgeStyle=orthogonalEdgeStyle;rounded=0;orthogonalLoop=1;jettySize=auto;html=1;" edge="1" parent="eq5a8P7IdpTRvWQ2f0uo-128" source="oojq5FccZAZtyJ_p-6VT-646" target="oojq5FccZAZtyJ_p-6VT-648">
          <mxGeometry relative="1" as="geometry" />
        </mxCell>
        <mxCell id="oojq5FccZAZtyJ_p-6VT-653" value="if (currentPenState != stroke-&amp;gt;penDown)" style="edgeLabel;html=1;align=center;verticalAlign=middle;resizable=0;points=[];" vertex="1" connectable="0" parent="oojq5FccZAZtyJ_p-6VT-649">
          <mxGeometry x="-0.1936" relative="1" as="geometry">
            <mxPoint x="23" y="8" as="offset" />
          </mxGeometry>
        </mxCell>
        <mxCell id="oojq5FccZAZtyJ_p-6VT-658" value="yes" style="edgeLabel;html=1;align=center;verticalAlign=middle;resizable=0;points=[];" vertex="1" connectable="0" parent="oojq5FccZAZtyJ_p-6VT-649">
          <mxGeometry x="-0.5804" y="3" relative="1" as="geometry">
            <mxPoint as="offset" />
          </mxGeometry>
        </mxCell>
        <mxCell id="oojq5FccZAZtyJ_p-6VT-657" style="edgeStyle=orthogonalEdgeStyle;rounded=0;orthogonalLoop=1;jettySize=auto;html=1;exitX=1;exitY=0.5;exitDx=0;exitDy=0;" edge="1" parent="eq5a8P7IdpTRvWQ2f0uo-128" source="oojq5FccZAZtyJ_p-6VT-646" target="oojq5FccZAZtyJ_p-6VT-656">
          <mxGeometry relative="1" as="geometry" />
        </mxCell>
        <mxCell id="oojq5FccZAZtyJ_p-6VT-659" value="no" style="edgeLabel;html=1;align=center;verticalAlign=middle;resizable=0;points=[];" vertex="1" connectable="0" parent="oojq5FccZAZtyJ_p-6VT-657">
          <mxGeometry x="-0.1676" y="-2" relative="1" as="geometry">
            <mxPoint as="offset" />
          </mxGeometry>
        </mxCell>
        <mxCell id="oojq5FccZAZtyJ_p-6VT-646" value="Pen State Changed?" style="rhombus;whiteSpace=wrap;html=1;rounded=1;" vertex="1" parent="eq5a8P7IdpTRvWQ2f0uo-128">
          <mxGeometry x="15.23" y="592" width="155.18" height="56" as="geometry" />
        </mxCell>
        <mxCell id="oojq5FccZAZtyJ_p-6VT-654" style="edgeStyle=orthogonalEdgeStyle;rounded=0;orthogonalLoop=1;jettySize=auto;html=1;exitX=1;exitY=0.5;exitDx=0;exitDy=0;entryX=0.5;entryY=1;entryDx=0;entryDy=0;" edge="1" parent="eq5a8P7IdpTRvWQ2f0uo-128" source="oojq5FccZAZtyJ_p-6VT-648" target="oojq5FccZAZtyJ_p-6VT-656">
          <mxGeometry relative="1" as="geometry">
            <mxPoint x="442" y="695" as="targetPoint" />
          </mxGeometry>
        </mxCell>
        <mxCell id="oojq5FccZAZtyJ_p-6VT-655" value="sprintf(buffer, &quot;S%d\n&quot;, stroke-&amp;gt;penDown ? 1000 : 0);" style="edgeLabel;html=1;align=center;verticalAlign=middle;resizable=0;points=[];" vertex="1" connectable="0" parent="oojq5FccZAZtyJ_p-6VT-654">
          <mxGeometry x="-0.1162" y="2" relative="1" as="geometry">
            <mxPoint x="7" y="19" as="offset" />
          </mxGeometry>
        </mxCell>
        <mxCell id="oojq5FccZAZtyJ_p-6VT-648" value="Print Pen Command" style="whiteSpace=wrap;html=1;rounded=1;" vertex="1" parent="eq5a8P7IdpTRvWQ2f0uo-128">
          <mxGeometry x="46.62" y="711" width="92.18" height="35" as="geometry" />
        </mxCell>
        <mxCell id="oojq5FccZAZtyJ_p-6VT-660" style="edgeStyle=orthogonalEdgeStyle;rounded=0;orthogonalLoop=1;jettySize=auto;html=1;exitX=0.5;exitY=0;exitDx=0;exitDy=0;entryX=1;entryY=0.5;entryDx=0;entryDy=0;" edge="1" parent="eq5a8P7IdpTRvWQ2f0uo-128" source="oojq5FccZAZtyJ_p-6VT-656" target="oojq5FccZAZtyJ_p-6VT-643">
          <mxGeometry relative="1" as="geometry" />
        </mxCell>
        <mxCell id="oojq5FccZAZtyJ_p-6VT-661" style="edgeStyle=orthogonalEdgeStyle;rounded=0;orthogonalLoop=1;jettySize=auto;html=1;exitX=1;exitY=0.5;exitDx=0;exitDy=0;entryX=0;entryY=0.5;entryDx=0;entryDy=0;" edge="1" parent="eq5a8P7IdpTRvWQ2f0uo-128" source="oojq5FccZAZtyJ_p-6VT-656" target="oojq5FccZAZtyJ_p-6VT-663">
          <mxGeometry relative="1" as="geometry">
            <mxPoint x="537" y="620" as="targetPoint" />
          </mxGeometry>
        </mxCell>
        <mxCell id="oojq5FccZAZtyJ_p-6VT-662" value="no more strokes" style="edgeLabel;html=1;align=center;verticalAlign=middle;resizable=0;points=[];" vertex="1" connectable="0" parent="oojq5FccZAZtyJ_p-6VT-661">
          <mxGeometry x="0.0061" y="-2" relative="1" as="geometry">
            <mxPoint as="offset" />
          </mxGeometry>
        </mxCell>
        <mxCell id="oojq5FccZAZtyJ_p-6VT-656" value="Next Stroke" style="whiteSpace=wrap;html=1;rounded=1;" vertex="1" parent="eq5a8P7IdpTRvWQ2f0uo-128">
          <mxGeometry x="331" y="602.5" width="92.18" height="35" as="geometry" />
        </mxCell>
        <mxCell id="oojq5FccZAZtyJ_p-6VT-664" style="edgeStyle=orthogonalEdgeStyle;rounded=0;orthogonalLoop=1;jettySize=auto;html=1;exitX=0.5;exitY=1;exitDx=0;exitDy=0;entryX=0.5;entryY=0;entryDx=0;entryDy=0;" edge="1" parent="eq5a8P7IdpTRvWQ2f0uo-128" source="oojq5FccZAZtyJ_p-6VT-663" target="oojq5FccZAZtyJ_p-6VT-666">
          <mxGeometry relative="1" as="geometry">
            <mxPoint x="549.62" y="856.5" as="targetPoint" />
          </mxGeometry>
        </mxCell>
        <mxCell id="oojq5FccZAZtyJ_p-6VT-665" value="*currentX += characterWidth + (scale * 1.0f);" style="edgeLabel;html=1;align=center;verticalAlign=middle;resizable=0;points=[];" vertex="1" connectable="0" parent="oojq5FccZAZtyJ_p-6VT-664">
          <mxGeometry x="-0.476" y="3" relative="1" as="geometry">
            <mxPoint x="2" y="15" as="offset" />
          </mxGeometry>
        </mxCell>
        <mxCell id="oojq5FccZAZtyJ_p-6VT-663" value="Update X position" style="whiteSpace=wrap;html=1;rounded=1;" vertex="1" parent="eq5a8P7IdpTRvWQ2f0uo-128">
          <mxGeometry x="498.62" y="680" width="103" height="35" as="geometry" />
        </mxCell>
        <mxCell id="oojq5FccZAZtyJ_p-6VT-666" value="&lt;b&gt;Return SUCCESS&lt;/b&gt;" style="whiteSpace=wrap;html=1;rounded=1;fillColor=#dae8fc;strokeColor=#6c8ebf;" vertex="1" parent="eq5a8P7IdpTRvWQ2f0uo-128">
          <mxGeometry x="498.62" y="780.5" width="103" height="35" as="geometry" />
        </mxCell>
        <mxCell id="oojq5FccZAZtyJ_p-6VT-229" value="call: handleLineBreak()" style="swimlane;whiteSpace=wrap;html=1;fillColor=#d5e8d4;strokeColor=#82b366;gradientColor=#97d077;" vertex="1" parent="eq5a8P7IdpTRvWQ2f0uo-113">
          <mxGeometry x="209" y="1090" width="515" height="457" as="geometry" />
        </mxCell>
        <mxCell id="oojq5FccZAZtyJ_p-6VT-670" style="edgeStyle=orthogonalEdgeStyle;rounded=0;orthogonalLoop=1;jettySize=auto;html=1;exitX=1;exitY=0.5;exitDx=0;exitDy=0;" edge="1" parent="oojq5FccZAZtyJ_p-6VT-229" source="oojq5FccZAZtyJ_p-6VT-672" target="oojq5FccZAZtyJ_p-6VT-673">
          <mxGeometry relative="1" as="geometry" />
        </mxCell>
        <mxCell id="oojq5FccZAZtyJ_p-6VT-671" value="INVALID" style="edgeLabel;html=1;align=center;verticalAlign=middle;resizable=0;points=[];" vertex="1" connectable="0" parent="oojq5FccZAZtyJ_p-6VT-670">
          <mxGeometry x="-0.1526" y="-1" relative="1" as="geometry">
            <mxPoint as="offset" />
          </mxGeometry>
        </mxCell>
        <mxCell id="oojq5FccZAZtyJ_p-6VT-681" value="" style="edgeStyle=orthogonalEdgeStyle;rounded=0;orthogonalLoop=1;jettySize=auto;html=1;" edge="1" parent="oojq5FccZAZtyJ_p-6VT-229" source="oojq5FccZAZtyJ_p-6VT-672" target="oojq5FccZAZtyJ_p-6VT-680">
          <mxGeometry relative="1" as="geometry" />
        </mxCell>
        <mxCell id="oojq5FccZAZtyJ_p-6VT-682" value="Valid" style="edgeLabel;html=1;align=center;verticalAlign=middle;resizable=0;points=[];" vertex="1" connectable="0" parent="oojq5FccZAZtyJ_p-6VT-681">
          <mxGeometry x="-0.3619" y="-1" relative="1" as="geometry">
            <mxPoint as="offset" />
          </mxGeometry>
        </mxCell>
        <mxCell id="oojq5FccZAZtyJ_p-6VT-672" value="&lt;br&gt;Valid currentX and currentY Parameters?" style="rhombus;whiteSpace=wrap;html=1;rounded=1;" vertex="1" parent="oojq5FccZAZtyJ_p-6VT-229">
          <mxGeometry y="28" width="175" height="78" as="geometry" />
        </mxCell>
        <mxCell id="oojq5FccZAZtyJ_p-6VT-673" value="&lt;font style=&quot;font-size: 10px;&quot;&gt;printf([ERROR] Invalid parameters in handleLineBreak)&lt;/font&gt;" style="rounded=1;whiteSpace=wrap;html=1;fillColor=#f5f5f5;strokeColor=#666666;fontColor=#333333;" vertex="1" parent="oojq5FccZAZtyJ_p-6VT-229">
          <mxGeometry x="230" y="54.5" width="257" height="27" as="geometry" />
        </mxCell>
        <mxCell id="oojq5FccZAZtyJ_p-6VT-674" value="Return&lt;br&gt;ERROR_INVALID_PARAM" style="whiteSpace=wrap;html=1;fillColor=#f8cecc;strokeColor=#b85450;rounded=1;" vertex="1" parent="oojq5FccZAZtyJ_p-6VT-229">
          <mxGeometry x="282.5" y="108" width="152" height="44.5" as="geometry" />
        </mxCell>
        <mxCell id="oojq5FccZAZtyJ_p-6VT-675" value="" style="edgeStyle=orthogonalEdgeStyle;rounded=0;orthogonalLoop=1;jettySize=auto;html=1;" edge="1" parent="oojq5FccZAZtyJ_p-6VT-229" source="oojq5FccZAZtyJ_p-6VT-673" target="oojq5FccZAZtyJ_p-6VT-674">
          <mxGeometry relative="1" as="geometry">
            <mxPoint x="385.6872413793102" y="66.99999999999955" as="sourcePoint" />
          </mxGeometry>
        </mxCell>
        <mxCell id="oojq5FccZAZtyJ_p-6VT-679" value="Return ERROR_OUT_OF_BOUNDS" style="whiteSpace=wrap;html=1;fillColor=#f8cecc;strokeColor=#b85450;rounded=1;" vertex="1" parent="oojq5FccZAZtyJ_p-6VT-229">
          <mxGeometry x="256" y="362" width="170" height="44.5" as="geometry" />
        </mxCell>
        <mxCell id="oojq5FccZAZtyJ_p-6VT-684" value="" style="edgeStyle=orthogonalEdgeStyle;rounded=0;orthogonalLoop=1;jettySize=auto;html=1;" edge="1" parent="oojq5FccZAZtyJ_p-6VT-229" source="oojq5FccZAZtyJ_p-6VT-680" target="oojq5FccZAZtyJ_p-6VT-683">
          <mxGeometry relative="1" as="geometry" />
        </mxCell>
        <mxCell id="oojq5FccZAZtyJ_p-6VT-685" value="*currentX = 0.0f" style="edgeLabel;html=1;align=center;verticalAlign=middle;resizable=0;points=[];" vertex="1" connectable="0" parent="oojq5FccZAZtyJ_p-6VT-684">
          <mxGeometry x="-0.2" y="-1" relative="1" as="geometry">
            <mxPoint y="2" as="offset" />
          </mxGeometry>
        </mxCell>
        <mxCell id="oojq5FccZAZtyJ_p-6VT-680" value="Reset X Position" style="whiteSpace=wrap;html=1;rounded=1;" vertex="1" parent="oojq5FccZAZtyJ_p-6VT-229">
          <mxGeometry x="39.25" y="137" width="96.5" height="36" as="geometry" />
        </mxCell>
        <mxCell id="oojq5FccZAZtyJ_p-6VT-687" value="" style="edgeStyle=orthogonalEdgeStyle;rounded=0;orthogonalLoop=1;jettySize=auto;html=1;" edge="1" parent="oojq5FccZAZtyJ_p-6VT-229" source="oojq5FccZAZtyJ_p-6VT-683" target="oojq5FccZAZtyJ_p-6VT-689">
          <mxGeometry relative="1" as="geometry">
            <mxPoint x="87.50500000000011" y="308.5" as="targetPoint" />
          </mxGeometry>
        </mxCell>
        <mxCell id="oojq5FccZAZtyJ_p-6VT-688" value="*currentY -= LINE_SPACING + *height;" style="edgeLabel;html=1;align=center;verticalAlign=middle;resizable=0;points=[];" vertex="1" connectable="0" parent="oojq5FccZAZtyJ_p-6VT-687">
          <mxGeometry x="-0.1278" y="-1" relative="1" as="geometry">
            <mxPoint x="21" y="1" as="offset" />
          </mxGeometry>
        </mxCell>
        <mxCell id="oojq5FccZAZtyJ_p-6VT-683" value="&lt;table&gt;&lt;tbody&gt;&lt;tr&gt;&lt;td&gt;&lt;strong&gt;&lt;/strong&gt;&lt;/td&gt;&lt;/tr&gt;&lt;/tbody&gt;&lt;/table&gt;&lt;table&gt;&lt;tbody&gt;&lt;tr&gt;&lt;td&gt;Move Y Position&lt;/td&gt;&lt;/tr&gt;&lt;/tbody&gt;&lt;/table&gt;" style="whiteSpace=wrap;html=1;rounded=1;" vertex="1" parent="oojq5FccZAZtyJ_p-6VT-229">
          <mxGeometry x="33.129999999999995" y="209" width="108.75" height="33" as="geometry" />
        </mxCell>
        <mxCell id="oojq5FccZAZtyJ_p-6VT-690" style="edgeStyle=orthogonalEdgeStyle;rounded=0;orthogonalLoop=1;jettySize=auto;html=1;" edge="1" parent="oojq5FccZAZtyJ_p-6VT-229" source="oojq5FccZAZtyJ_p-6VT-691" target="oojq5FccZAZtyJ_p-6VT-679">
          <mxGeometry relative="1" as="geometry">
            <mxPoint x="194.42857142857156" y="323.1428571428578" as="targetPoint" />
          </mxGeometry>
        </mxCell>
        <mxCell id="oojq5FccZAZtyJ_p-6VT-695" value="" style="edgeStyle=orthogonalEdgeStyle;rounded=0;orthogonalLoop=1;jettySize=auto;html=1;" edge="1" parent="oojq5FccZAZtyJ_p-6VT-229" source="oojq5FccZAZtyJ_p-6VT-689" target="oojq5FccZAZtyJ_p-6VT-694">
          <mxGeometry relative="1" as="geometry" />
        </mxCell>
        <mxCell id="oojq5FccZAZtyJ_p-6VT-696" value="if (*currentY &amp;lt; MIN_Y)" style="edgeLabel;html=1;align=center;verticalAlign=middle;resizable=0;points=[];" vertex="1" connectable="0" parent="oojq5FccZAZtyJ_p-6VT-695">
          <mxGeometry x="-0.2292" y="-1" relative="1" as="geometry">
            <mxPoint as="offset" />
          </mxGeometry>
        </mxCell>
        <mxCell id="oojq5FccZAZtyJ_p-6VT-689" value="Valid Y Position?" style="rhombus;whiteSpace=wrap;html=1;rounded=1;" vertex="1" parent="oojq5FccZAZtyJ_p-6VT-229">
          <mxGeometry x="24.51" y="296" width="125.99" height="54" as="geometry" />
        </mxCell>
        <mxCell id="oojq5FccZAZtyJ_p-6VT-691" value="printf([ERROR] Invalid parameters in handleLineBreak)" style="rounded=1;whiteSpace=wrap;html=1;fillColor=#f5f5f5;strokeColor=#666666;fontColor=#333333;" vertex="1" parent="oojq5FccZAZtyJ_p-6VT-229">
          <mxGeometry x="180" y="309.5" width="322" height="27" as="geometry" />
        </mxCell>
        <mxCell id="oojq5FccZAZtyJ_p-6VT-692" value="" style="edgeStyle=orthogonalEdgeStyle;rounded=0;orthogonalLoop=1;jettySize=auto;html=1;exitX=1;exitY=0.5;exitDx=0;exitDy=0;" edge="1" parent="oojq5FccZAZtyJ_p-6VT-229" source="oojq5FccZAZtyJ_p-6VT-689" target="oojq5FccZAZtyJ_p-6VT-691">
          <mxGeometry relative="1" as="geometry">
            <mxPoint x="487.42857142857156" y="3645.142857142858" as="targetPoint" />
            <mxPoint x="444" y="3645" as="sourcePoint" />
          </mxGeometry>
        </mxCell>
        <mxCell id="oojq5FccZAZtyJ_p-6VT-693" value="no" style="edgeLabel;html=1;align=center;verticalAlign=middle;resizable=0;points=[];" vertex="1" connectable="0" parent="oojq5FccZAZtyJ_p-6VT-692">
          <mxGeometry x="0.3545" y="-1" relative="1" as="geometry">
            <mxPoint x="-5" y="-1" as="offset" />
          </mxGeometry>
        </mxCell>
        <mxCell id="oojq5FccZAZtyJ_p-6VT-694" value="&lt;b&gt;Return SUCCESS&lt;/b&gt;" style="whiteSpace=wrap;html=1;rounded=1;fillColor=#dae8fc;strokeColor=#6c8ebf;strokeWidth=2;" vertex="1" parent="oojq5FccZAZtyJ_p-6VT-229">
          <mxGeometry x="27.49" y="398" width="116.51" height="37" as="geometry" />
        </mxCell>
        <mxCell id="oojq5FccZAZtyJ_p-6VT-372" style="edgeStyle=orthogonalEdgeStyle;rounded=0;orthogonalLoop=1;jettySize=auto;html=1;exitX=1;exitY=0.5;exitDx=0;exitDy=0;" edge="1" parent="eq5a8P7IdpTRvWQ2f0uo-113" source="oojq5FccZAZtyJ_p-6VT-242" target="oojq5FccZAZtyJ_p-6VT-229">
          <mxGeometry relative="1" as="geometry" />
        </mxCell>
        <mxCell id="oojq5FccZAZtyJ_p-6VT-569" value="too wide" style="edgeLabel;html=1;align=center;verticalAlign=middle;resizable=0;points=[];" vertex="1" connectable="0" parent="oojq5FccZAZtyJ_p-6VT-372">
          <mxGeometry x="-0.8195" y="-1" relative="1" as="geometry">
            <mxPoint x="15" y="-1" as="offset" />
          </mxGeometry>
        </mxCell>
        <mxCell id="oojq5FccZAZtyJ_p-6VT-373" style="edgeStyle=orthogonalEdgeStyle;rounded=0;orthogonalLoop=1;jettySize=auto;html=1;exitX=0.5;exitY=1;exitDx=0;exitDy=0;" edge="1" parent="eq5a8P7IdpTRvWQ2f0uo-113" source="oojq5FccZAZtyJ_p-6VT-564" target="oojq5FccZAZtyJ_p-6VT-570">
          <mxGeometry relative="1" as="geometry">
            <mxPoint x="163" y="1823" as="targetPoint" />
          </mxGeometry>
        </mxCell>
        <mxCell id="oojq5FccZAZtyJ_p-6VT-242" value="&lt;b&gt;Does word fit?&lt;/b&gt;" style="rhombus;whiteSpace=wrap;html=1;fillColor=#f5f5f5;strokeColor=#666666;fontColor=#333333;" vertex="1" parent="eq5a8P7IdpTRvWQ2f0uo-113">
          <mxGeometry x="19.5" y="1009.9999999999999" width="124" height="53" as="geometry" />
        </mxCell>
        <mxCell id="oojq5FccZAZtyJ_p-6VT-304" value="printf:&#39;[ERROR] Invalid parameters in processWord&quot;" style="rounded=1;whiteSpace=wrap;html=1;fillColor=#f5f5f5;strokeColor=#666666;fontColor=#333333;" vertex="1" parent="eq5a8P7IdpTRvWQ2f0uo-113">
          <mxGeometry x="449" y="64.5" width="285" height="27" as="geometry" />
        </mxCell>
        <mxCell id="oojq5FccZAZtyJ_p-6VT-301" style="edgeStyle=orthogonalEdgeStyle;rounded=0;orthogonalLoop=1;jettySize=auto;html=1;exitX=0.5;exitY=1;exitDx=0;exitDy=0;" edge="1" parent="eq5a8P7IdpTRvWQ2f0uo-113" source="oojq5FccZAZtyJ_p-6VT-298" target="oojq5FccZAZtyJ_p-6VT-308">
          <mxGeometry relative="1" as="geometry">
            <mxPoint x="281" y="192" as="targetPoint" />
            <Array as="points">
              <mxPoint x="281" y="166" />
              <mxPoint x="281" y="166" />
            </Array>
          </mxGeometry>
        </mxCell>
        <mxCell id="oojq5FccZAZtyJ_p-6VT-302" value="Valid Parameters" style="edgeLabel;html=1;align=center;verticalAlign=middle;resizable=0;points=[];" vertex="1" connectable="0" parent="oojq5FccZAZtyJ_p-6VT-301">
          <mxGeometry x="0.3172" y="1" relative="1" as="geometry">
            <mxPoint x="-23" y="-2" as="offset" />
          </mxGeometry>
        </mxCell>
        <mxCell id="oojq5FccZAZtyJ_p-6VT-294" value="Data Validity Check" style="rounded=1;whiteSpace=wrap;html=1;" vertex="1" parent="eq5a8P7IdpTRvWQ2f0uo-113">
          <mxGeometry x="55.999999999999986" y="48" width="120" height="60" as="geometry" />
        </mxCell>
        <mxCell id="oojq5FccZAZtyJ_p-6VT-298" value="Valid Parameters?" style="rhombus;whiteSpace=wrap;html=1;rounded=1;fillColor=#f5f5f5;fontColor=#333333;strokeColor=#666666;" vertex="1" parent="eq5a8P7IdpTRvWQ2f0uo-113">
          <mxGeometry x="207" y="36" width="148.83" height="80" as="geometry" />
        </mxCell>
        <mxCell id="oojq5FccZAZtyJ_p-6VT-299" value="" style="edgeStyle=orthogonalEdgeStyle;rounded=0;orthogonalLoop=1;jettySize=auto;html=1;" edge="1" parent="eq5a8P7IdpTRvWQ2f0uo-113" source="oojq5FccZAZtyJ_p-6VT-294" target="oojq5FccZAZtyJ_p-6VT-298">
          <mxGeometry relative="1" as="geometry" />
        </mxCell>
        <mxCell id="oojq5FccZAZtyJ_p-6VT-306" style="edgeStyle=orthogonalEdgeStyle;rounded=0;orthogonalLoop=1;jettySize=auto;html=1;exitX=1;exitY=0.5;exitDx=0;exitDy=0;" edge="1" parent="eq5a8P7IdpTRvWQ2f0uo-113" source="oojq5FccZAZtyJ_p-6VT-298">
          <mxGeometry relative="1" as="geometry">
            <mxPoint x="441.9999999999998" y="76.00000000000045" as="targetPoint" />
          </mxGeometry>
        </mxCell>
        <mxCell id="oojq5FccZAZtyJ_p-6VT-307" value="INVALID" style="edgeLabel;html=1;align=center;verticalAlign=middle;resizable=0;points=[];" vertex="1" connectable="0" parent="oojq5FccZAZtyJ_p-6VT-306">
          <mxGeometry x="-0.1118" relative="1" as="geometry">
            <mxPoint as="offset" />
          </mxGeometry>
        </mxCell>
        <mxCell id="oojq5FccZAZtyJ_p-6VT-305" value="Return EXIT_FAILURE" style="whiteSpace=wrap;html=1;fillColor=#f8cecc;strokeColor=#b85450;rounded=1;" vertex="1" parent="eq5a8P7IdpTRvWQ2f0uo-113">
          <mxGeometry x="525" y="120" width="120" height="44" as="geometry" />
        </mxCell>
        <mxCell id="oojq5FccZAZtyJ_p-6VT-303" value="" style="edgeStyle=orthogonalEdgeStyle;rounded=0;orthogonalLoop=1;jettySize=auto;html=1;" edge="1" parent="eq5a8P7IdpTRvWQ2f0uo-113" target="oojq5FccZAZtyJ_p-6VT-305">
          <mxGeometry relative="1" as="geometry">
            <mxPoint x="584.5172413793102" y="89.49999999999955" as="sourcePoint" />
          </mxGeometry>
        </mxCell>
        <mxCell id="oojq5FccZAZtyJ_p-6VT-300" value="&lt;div style=&quot;color: rgb(204, 204, 204); background-color: rgb(31, 31, 31); font-family: Consolas, &amp;quot;Courier New&amp;quot;, monospace; line-height: 19px; white-space-collapse: preserve;&quot;&gt;&lt;font style=&quot;font-size: 11px;&quot;&gt;&lt;span style=&quot;color: rgb(197, 134, 192);&quot;&gt;if&lt;/span&gt; (&lt;span style=&quot;color: rgb(212, 212, 212);&quot;&gt;!&lt;/span&gt;&lt;span style=&quot;color: rgb(156, 220, 254);&quot;&gt;word&lt;/span&gt; &lt;span style=&quot;color: rgb(212, 212, 212);&quot;&gt;||&lt;/span&gt; &lt;span style=&quot;color: rgb(212, 212, 212);&quot;&gt;!&lt;/span&gt;&lt;span style=&quot;color: rgb(156, 220, 254);&quot;&gt;font&lt;/span&gt; &lt;span style=&quot;color: rgb(212, 212, 212);&quot;&gt;||&lt;/span&gt; &lt;span style=&quot;color: rgb(212, 212, 212);&quot;&gt;!&lt;/span&gt;&lt;span style=&quot;color: rgb(156, 220, 254);&quot;&gt;currentX&lt;/span&gt; &lt;span style=&quot;color: rgb(212, 212, 212);&quot;&gt;||&lt;/span&gt; &lt;span style=&quot;color: rgb(212, 212, 212);&quot;&gt;!&lt;/span&gt;&lt;span style=&quot;color: rgb(156, 220, 254);&quot;&gt;currentY&lt;/span&gt;)&lt;/font&gt;&lt;/div&gt;" style="text;html=1;align=center;verticalAlign=middle;resizable=0;points=[];autosize=1;strokeColor=none;fillColor=none;" vertex="1" parent="eq5a8P7IdpTRvWQ2f0uo-113">
          <mxGeometry x="178.5" y="116" width="290" height="32" as="geometry" />
        </mxCell>
        <mxCell id="oojq5FccZAZtyJ_p-6VT-308" value="call: calculateWordWidth()" style="swimlane;whiteSpace=wrap;html=1;fillColor=#b0e3e6;strokeColor=#0e8088;" vertex="1" parent="eq5a8P7IdpTRvWQ2f0uo-113">
          <mxGeometry x="15" y="192" width="691" height="756" as="geometry" />
        </mxCell>
        <mxCell id="oojq5FccZAZtyJ_p-6VT-321" style="edgeStyle=orthogonalEdgeStyle;rounded=0;orthogonalLoop=1;jettySize=auto;html=1;exitX=1;exitY=0.5;exitDx=0;exitDy=0;" edge="1" parent="oojq5FccZAZtyJ_p-6VT-308" source="oojq5FccZAZtyJ_p-6VT-316" target="oojq5FccZAZtyJ_p-6VT-317">
          <mxGeometry relative="1" as="geometry" />
        </mxCell>
        <mxCell id="oojq5FccZAZtyJ_p-6VT-322" value="INVALID" style="edgeLabel;html=1;align=center;verticalAlign=middle;resizable=0;points=[];" vertex="1" connectable="0" parent="oojq5FccZAZtyJ_p-6VT-321">
          <mxGeometry x="-0.1526" y="-1" relative="1" as="geometry">
            <mxPoint as="offset" />
          </mxGeometry>
        </mxCell>
        <mxCell id="oojq5FccZAZtyJ_p-6VT-316" value="Valid Parameters?" style="rhombus;whiteSpace=wrap;html=1;rounded=1;" vertex="1" parent="oojq5FccZAZtyJ_p-6VT-308">
          <mxGeometry x="7.6699999999999875" y="23" width="148.83" height="80" as="geometry" />
        </mxCell>
        <mxCell id="oojq5FccZAZtyJ_p-6VT-317" value="printf([ERROR] Invalid parameters in calculateWordWidth)" style="rounded=1;whiteSpace=wrap;html=1;fillColor=#f5f5f5;strokeColor=#666666;fontColor=#333333;" vertex="1" parent="oojq5FccZAZtyJ_p-6VT-308">
          <mxGeometry x="239" y="49" width="322" height="27" as="geometry" />
        </mxCell>
        <mxCell id="oojq5FccZAZtyJ_p-6VT-319" value="Return EXIT_FAILURE" style="whiteSpace=wrap;html=1;fillColor=#f8cecc;strokeColor=#b85450;rounded=1;" vertex="1" parent="oojq5FccZAZtyJ_p-6VT-308">
          <mxGeometry x="586" y="40.25" width="97" height="44.5" as="geometry" />
        </mxCell>
        <mxCell id="oojq5FccZAZtyJ_p-6VT-320" value="" style="edgeStyle=orthogonalEdgeStyle;rounded=0;orthogonalLoop=1;jettySize=auto;html=1;exitX=1;exitY=0.5;exitDx=0;exitDy=0;" edge="1" parent="oojq5FccZAZtyJ_p-6VT-308" target="oojq5FccZAZtyJ_p-6VT-319" source="oojq5FccZAZtyJ_p-6VT-317">
          <mxGeometry relative="1" as="geometry">
            <mxPoint x="374.51724137931024" y="73.99999999999955" as="sourcePoint" />
          </mxGeometry>
        </mxCell>
        <mxCell id="oojq5FccZAZtyJ_p-6VT-323" value="&lt;div style=&quot;color: rgb(204, 204, 204); background-color: rgb(31, 31, 31); font-family: Consolas, &amp;quot;Courier New&amp;quot;, monospace; font-size: 14px; line-height: 19px; white-space-collapse: preserve;&quot;&gt;&lt;span style=&quot;color: #c586c0;&quot;&gt;if&lt;/span&gt; (&lt;span style=&quot;color: #d4d4d4;&quot;&gt;!&lt;/span&gt;&lt;span style=&quot;color: #9cdcfe;&quot;&gt;word&lt;/span&gt; &lt;span style=&quot;color: #d4d4d4;&quot;&gt;||&lt;/span&gt; &lt;span style=&quot;color: #d4d4d4;&quot;&gt;!&lt;/span&gt;&lt;span style=&quot;color: #9cdcfe;&quot;&gt;font&lt;/span&gt;)&lt;/div&gt;" style="text;html=1;align=center;verticalAlign=middle;resizable=0;points=[];autosize=1;strokeColor=none;fillColor=none;" vertex="1" parent="oojq5FccZAZtyJ_p-6VT-308">
          <mxGeometry x="7.6699999999999875" y="79" width="164" height="31" as="geometry" />
        </mxCell>
        <mxCell id="oojq5FccZAZtyJ_p-6VT-327" style="edgeStyle=orthogonalEdgeStyle;rounded=0;orthogonalLoop=1;jettySize=auto;html=1;exitX=1;exitY=0.5;exitDx=0;exitDy=0;entryX=0;entryY=0.5;entryDx=0;entryDy=0;" edge="1" parent="oojq5FccZAZtyJ_p-6VT-308" source="oojq5FccZAZtyJ_p-6VT-324" target="oojq5FccZAZtyJ_p-6VT-328">
          <mxGeometry relative="1" as="geometry">
            <mxPoint x="246.07000000000005" y="342.8000000000002" as="targetPoint" />
          </mxGeometry>
        </mxCell>
        <mxCell id="oojq5FccZAZtyJ_p-6VT-324" value="Calculate Scale Factor" style="whiteSpace=wrap;html=1;rounded=1;" vertex="1" parent="oojq5FccZAZtyJ_p-6VT-308">
          <mxGeometry x="16.12" y="304" width="131.92" height="36" as="geometry" />
        </mxCell>
        <mxCell id="oojq5FccZAZtyJ_p-6VT-355" style="edgeStyle=orthogonalEdgeStyle;rounded=0;orthogonalLoop=1;jettySize=auto;html=1;exitX=0.5;exitY=1;exitDx=0;exitDy=0;entryX=0.5;entryY=0;entryDx=0;entryDy=0;" edge="1" parent="oojq5FccZAZtyJ_p-6VT-308" source="oojq5FccZAZtyJ_p-6VT-154" target="oojq5FccZAZtyJ_p-6VT-357">
          <mxGeometry relative="1" as="geometry">
            <mxPoint x="389.62068965517255" y="661.7241379310344" as="targetPoint" />
          </mxGeometry>
        </mxCell>
        <mxCell id="oojq5FccZAZtyJ_p-6VT-356" value="for (int j = 1; ... { if (x &amp;gt; maxX) maxX = x; }" style="edgeLabel;html=1;align=center;verticalAlign=middle;resizable=0;points=[];" vertex="1" connectable="0" parent="oojq5FccZAZtyJ_p-6VT-355">
          <mxGeometry x="-0.3763" relative="1" as="geometry">
            <mxPoint as="offset" />
          </mxGeometry>
        </mxCell>
        <mxCell id="oojq5FccZAZtyJ_p-6VT-154" value="Find Max X-Coordinate" style="rounded=1;whiteSpace=wrap;html=1;" vertex="1" parent="oojq5FccZAZtyJ_p-6VT-308">
          <mxGeometry x="346.4" y="569" width="87" height="34" as="geometry" />
        </mxCell>
        <mxCell id="oojq5FccZAZtyJ_p-6VT-165" style="edgeStyle=orthogonalEdgeStyle;rounded=0;orthogonalLoop=1;jettySize=auto;html=1;exitX=0.5;exitY=1;exitDx=0;exitDy=0;entryX=0.5;entryY=0;entryDx=0;entryDy=0;" edge="1" parent="oojq5FccZAZtyJ_p-6VT-308" source="oojq5FccZAZtyJ_p-6VT-345" target="oojq5FccZAZtyJ_p-6VT-154">
          <mxGeometry relative="1" as="geometry" />
        </mxCell>
        <mxCell id="oojq5FccZAZtyJ_p-6VT-167" value="Get ASCII Value" style="rounded=1;whiteSpace=wrap;html=1;" vertex="1" parent="oojq5FccZAZtyJ_p-6VT-308">
          <mxGeometry x="347.76" y="366" width="87" height="34" as="geometry" />
        </mxCell>
        <mxCell id="oojq5FccZAZtyJ_p-6VT-329" style="edgeStyle=orthogonalEdgeStyle;rounded=0;orthogonalLoop=1;jettySize=auto;html=1;exitX=1;exitY=0.5;exitDx=0;exitDy=0;" edge="1" parent="oojq5FccZAZtyJ_p-6VT-308" source="oojq5FccZAZtyJ_p-6VT-350" target="oojq5FccZAZtyJ_p-6VT-167">
          <mxGeometry relative="1" as="geometry" />
        </mxCell>
        <mxCell id="oojq5FccZAZtyJ_p-6VT-328" value="Process Word Characters Loop start&lt;br&gt;while (word[i] != &#39;\0&#39;)" style="rounded=1;whiteSpace=wrap;html=1;" vertex="1" parent="oojq5FccZAZtyJ_p-6VT-308">
          <mxGeometry x="171.67" y="296.75" width="127" height="50.5" as="geometry" />
        </mxCell>
        <mxCell id="oojq5FccZAZtyJ_p-6VT-330" style="edgeStyle=orthogonalEdgeStyle;rounded=0;orthogonalLoop=1;jettySize=auto;html=1;exitX=1;exitY=0.5;exitDx=0;exitDy=0;" edge="1" parent="oojq5FccZAZtyJ_p-6VT-308" source="oojq5FccZAZtyJ_p-6VT-332" target="oojq5FccZAZtyJ_p-6VT-333">
          <mxGeometry relative="1" as="geometry" />
        </mxCell>
        <mxCell id="oojq5FccZAZtyJ_p-6VT-331" value="INVALID" style="edgeLabel;html=1;align=center;verticalAlign=middle;resizable=0;points=[];" vertex="1" connectable="0" parent="oojq5FccZAZtyJ_p-6VT-330">
          <mxGeometry x="-0.1526" y="-1" relative="1" as="geometry">
            <mxPoint as="offset" />
          </mxGeometry>
        </mxCell>
        <mxCell id="oojq5FccZAZtyJ_p-6VT-332" value="Valid height?" style="rhombus;whiteSpace=wrap;html=1;rounded=1;" vertex="1" parent="oojq5FccZAZtyJ_p-6VT-308">
          <mxGeometry x="10" y="119.75" width="148.83" height="45" as="geometry" />
        </mxCell>
        <mxCell id="oojq5FccZAZtyJ_p-6VT-333" value="printf(Error: Height %.2f outisde valid range)" style="rounded=1;whiteSpace=wrap;html=1;fillColor=#f5f5f5;strokeColor=#666666;fontColor=#333333;" vertex="1" parent="oojq5FccZAZtyJ_p-6VT-308">
          <mxGeometry x="239" y="129" width="322" height="27" as="geometry" />
        </mxCell>
        <mxCell id="oojq5FccZAZtyJ_p-6VT-334" value="Return EXIT_FAILURE" style="whiteSpace=wrap;html=1;fillColor=#f8cecc;strokeColor=#b85450;rounded=1;" vertex="1" parent="oojq5FccZAZtyJ_p-6VT-308">
          <mxGeometry x="586" y="120.25" width="97" height="44.5" as="geometry" />
        </mxCell>
        <mxCell id="oojq5FccZAZtyJ_p-6VT-335" value="" style="edgeStyle=orthogonalEdgeStyle;rounded=0;orthogonalLoop=1;jettySize=auto;html=1;exitX=1;exitY=0.5;exitDx=0;exitDy=0;" edge="1" parent="oojq5FccZAZtyJ_p-6VT-308" source="oojq5FccZAZtyJ_p-6VT-333" target="oojq5FccZAZtyJ_p-6VT-334">
          <mxGeometry relative="1" as="geometry">
            <mxPoint x="374.51724137931024" y="153.99999999999955" as="sourcePoint" />
          </mxGeometry>
        </mxCell>
        <mxCell id="oojq5FccZAZtyJ_p-6VT-340" style="edgeStyle=orthogonalEdgeStyle;rounded=0;orthogonalLoop=1;jettySize=auto;html=1;exitX=0.5;exitY=1;exitDx=0;exitDy=0;" edge="1" parent="oojq5FccZAZtyJ_p-6VT-308" source="oojq5FccZAZtyJ_p-6VT-332" target="oojq5FccZAZtyJ_p-6VT-324">
          <mxGeometry relative="1" as="geometry">
            <mxPoint x="83.2672799999998" y="229.34000000000015" as="targetPoint" />
          </mxGeometry>
        </mxCell>
        <mxCell id="oojq5FccZAZtyJ_p-6VT-341" style="edgeStyle=orthogonalEdgeStyle;rounded=0;orthogonalLoop=1;jettySize=auto;html=1;exitX=0.5;exitY=1;exitDx=0;exitDy=0;entryX=0.501;entryY=0.04;entryDx=0;entryDy=0;entryPerimeter=0;" edge="1" parent="oojq5FccZAZtyJ_p-6VT-308" source="oojq5FccZAZtyJ_p-6VT-316" target="oojq5FccZAZtyJ_p-6VT-332">
          <mxGeometry relative="1" as="geometry" />
        </mxCell>
        <mxCell id="oojq5FccZAZtyJ_p-6VT-336" value="&lt;br&gt;&lt;div style=&quot;color: rgb(204, 204, 204); background-color: rgb(31, 31, 31); font-family: Consolas, &amp;quot;Courier New&amp;quot;, monospace; font-weight: normal; line-height: 19px; white-space: pre;&quot;&gt;&lt;div style=&quot;&quot;&gt;&lt;font style=&quot;font-size: 9px;&quot;&gt;&lt;span style=&quot;color: rgb(197, 134, 192);&quot;&gt;if&lt;/span&gt;&lt;span style=&quot;color: rgb(204, 204, 204);&quot;&gt; (&lt;/span&gt;&lt;span style=&quot;color: rgb(156, 220, 254);&quot;&gt;height&lt;/span&gt;&lt;span style=&quot;color: rgb(204, 204, 204);&quot;&gt; &lt;/span&gt;&lt;span style=&quot;color: rgb(212, 212, 212);&quot;&gt;&amp;lt;&lt;/span&gt;&lt;span style=&quot;color: rgb(204, 204, 204);&quot;&gt; &lt;/span&gt;&lt;span style=&quot;color: rgb(86, 156, 214);&quot;&gt;MIN_HEIGHT&lt;/span&gt;&lt;span style=&quot;color: rgb(204, 204, 204);&quot;&gt; &lt;/span&gt;&lt;span style=&quot;color: rgb(212, 212, 212);&quot;&gt;||&lt;/span&gt;&lt;span style=&quot;color: rgb(204, 204, 204);&quot;&gt; &lt;/span&gt;&lt;span style=&quot;color: rgb(156, 220, 254);&quot;&gt;height&lt;/span&gt;&lt;span style=&quot;color: rgb(204, 204, 204);&quot;&gt; &lt;/span&gt;&lt;span style=&quot;color: rgb(212, 212, 212);&quot;&gt;&amp;gt;&lt;/span&gt;&lt;span style=&quot;color: rgb(204, 204, 204);&quot;&gt; &lt;/span&gt;&lt;span style=&quot;color: rgb(86, 156, 214);&quot;&gt;MAX_HEIGHT&lt;/span&gt;&lt;span style=&quot;color: rgb(204, 204, 204);&quot;&gt;)&lt;/span&gt;&lt;/font&gt;&lt;/div&gt;&lt;/div&gt;&lt;div&gt;&lt;br/&gt;&lt;/div&gt;" style="text;html=1;align=center;verticalAlign=middle;resizable=0;points=[];autosize=1;strokeColor=none;fillColor=none;" vertex="1" parent="oojq5FccZAZtyJ_p-6VT-308">
          <mxGeometry y="152" width="251" height="61" as="geometry" />
        </mxCell>
        <mxCell id="oojq5FccZAZtyJ_p-6VT-342" value="Retrieve Character Data" style="rounded=1;whiteSpace=wrap;html=1;" vertex="1" parent="oojq5FccZAZtyJ_p-6VT-308">
          <mxGeometry x="346.4" y="437" width="87" height="34" as="geometry" />
        </mxCell>
        <mxCell id="oojq5FccZAZtyJ_p-6VT-343" value="" style="edgeStyle=orthogonalEdgeStyle;rounded=0;orthogonalLoop=1;jettySize=auto;html=1;exitX=0.5;exitY=1;exitDx=0;exitDy=0;entryX=0.5;entryY=0;entryDx=0;entryDy=0;" edge="1" parent="oojq5FccZAZtyJ_p-6VT-308" source="oojq5FccZAZtyJ_p-6VT-167" target="oojq5FccZAZtyJ_p-6VT-342">
          <mxGeometry relative="1" as="geometry">
            <mxPoint x="463.27" y="2824" as="sourcePoint" />
            <mxPoint x="462.27" y="2936" as="targetPoint" />
          </mxGeometry>
        </mxCell>
        <mxCell id="oojq5FccZAZtyJ_p-6VT-352" value="int ascii = (int)word[i];" style="edgeLabel;html=1;align=center;verticalAlign=middle;resizable=0;points=[];" vertex="1" connectable="0" parent="oojq5FccZAZtyJ_p-6VT-343">
          <mxGeometry x="-0.2796" relative="1" as="geometry">
            <mxPoint as="offset" />
          </mxGeometry>
        </mxCell>
        <mxCell id="oojq5FccZAZtyJ_p-6VT-347" style="edgeStyle=orthogonalEdgeStyle;rounded=0;orthogonalLoop=1;jettySize=auto;html=1;exitX=1;exitY=0.5;exitDx=0;exitDy=0;" edge="1" parent="oojq5FccZAZtyJ_p-6VT-308" source="oojq5FccZAZtyJ_p-6VT-345" target="oojq5FccZAZtyJ_p-6VT-349">
          <mxGeometry relative="1" as="geometry">
            <mxPoint x="581" y="380" as="targetPoint" />
          </mxGeometry>
        </mxCell>
        <mxCell id="oojq5FccZAZtyJ_p-6VT-348" value="INVALID" style="edgeLabel;html=1;align=center;verticalAlign=middle;resizable=0;points=[];" vertex="1" connectable="0" parent="oojq5FccZAZtyJ_p-6VT-347">
          <mxGeometry x="-0.0586" y="-1" relative="1" as="geometry">
            <mxPoint as="offset" />
          </mxGeometry>
        </mxCell>
        <mxCell id="oojq5FccZAZtyJ_p-6VT-345" value="Validate Character Strokes" style="rhombus;whiteSpace=wrap;html=1;rounded=1;" vertex="1" parent="oojq5FccZAZtyJ_p-6VT-308">
          <mxGeometry x="268.99999999999994" y="504" width="241.79" height="45" as="geometry" />
        </mxCell>
        <mxCell id="oojq5FccZAZtyJ_p-6VT-346" value="" style="edgeStyle=orthogonalEdgeStyle;rounded=0;orthogonalLoop=1;jettySize=auto;html=1;exitX=0.5;exitY=1;exitDx=0;exitDy=0;entryX=0.5;entryY=0;entryDx=0;entryDy=0;" edge="1" parent="oojq5FccZAZtyJ_p-6VT-308" source="oojq5FccZAZtyJ_p-6VT-342" target="oojq5FccZAZtyJ_p-6VT-345">
          <mxGeometry relative="1" as="geometry">
            <mxPoint x="464.27" y="2908" as="sourcePoint" />
            <mxPoint x="464.27" y="2983" as="targetPoint" />
          </mxGeometry>
        </mxCell>
        <mxCell id="oojq5FccZAZtyJ_p-6VT-353" value="struct CharacterData* charData = &amp;amp;font-&amp;gt;characters[ascii];" style="edgeLabel;html=1;align=center;verticalAlign=middle;resizable=0;points=[];" vertex="1" connectable="0" parent="oojq5FccZAZtyJ_p-6VT-346">
          <mxGeometry x="-0.2037" y="-1" relative="1" as="geometry">
            <mxPoint as="offset" />
          </mxGeometry>
        </mxCell>
        <mxCell id="oojq5FccZAZtyJ_p-6VT-349" value="[WARNING] No strokes data for character" style="rounded=1;whiteSpace=wrap;html=1;fillColor=#f5f5f5;strokeColor=#ff0000;fontColor=#333333;" vertex="1" parent="oojq5FccZAZtyJ_p-6VT-308">
          <mxGeometry x="496" y="696" width="164" height="47" as="geometry" />
        </mxCell>
        <mxCell id="oojq5FccZAZtyJ_p-6VT-351" value="" style="edgeStyle=orthogonalEdgeStyle;rounded=0;orthogonalLoop=1;jettySize=auto;html=1;exitX=0.5;exitY=1;exitDx=0;exitDy=0;entryX=0.5;entryY=0;entryDx=0;entryDy=0;" edge="1" parent="oojq5FccZAZtyJ_p-6VT-308" source="oojq5FccZAZtyJ_p-6VT-328" target="oojq5FccZAZtyJ_p-6VT-350">
          <mxGeometry relative="1" as="geometry">
            <mxPoint x="384" y="2736" as="sourcePoint" />
            <mxPoint x="422" y="2813" as="targetPoint" />
          </mxGeometry>
        </mxCell>
        <mxCell id="oojq5FccZAZtyJ_p-6VT-350" value="Read Next Char" style="rounded=1;whiteSpace=wrap;html=1;" vertex="1" parent="oojq5FccZAZtyJ_p-6VT-308">
          <mxGeometry x="196.99999999999997" y="366" width="95.23" height="34" as="geometry" />
        </mxCell>
        <mxCell id="oojq5FccZAZtyJ_p-6VT-358" value="totalWidth += maxX * scaleFactor;" style="edgeStyle=orthogonalEdgeStyle;rounded=0;orthogonalLoop=1;jettySize=auto;html=1;exitX=0;exitY=0.5;exitDx=0;exitDy=0;entryX=0.5;entryY=1;entryDx=0;entryDy=0;" edge="1" parent="oojq5FccZAZtyJ_p-6VT-308" source="oojq5FccZAZtyJ_p-6VT-357" target="oojq5FccZAZtyJ_p-6VT-359">
          <mxGeometry x="-0.12" y="14" relative="1" as="geometry">
            <mxPoint x="151.68965517241372" y="673.1034482758623" as="targetPoint" />
            <mxPoint as="offset" />
          </mxGeometry>
        </mxCell>
        <mxCell id="oojq5FccZAZtyJ_p-6VT-357" value="Update Word Total Width" style="rounded=1;whiteSpace=wrap;html=1;" vertex="1" parent="oojq5FccZAZtyJ_p-6VT-308">
          <mxGeometry x="346.4" y="656" width="87" height="34" as="geometry" />
        </mxCell>
        <mxCell id="oojq5FccZAZtyJ_p-6VT-360" style="edgeStyle=orthogonalEdgeStyle;rounded=0;orthogonalLoop=1;jettySize=auto;html=1;exitX=0.5;exitY=0;exitDx=0;exitDy=0;entryX=0.5;entryY=1;entryDx=0;entryDy=0;" edge="1" parent="oojq5FccZAZtyJ_p-6VT-308" source="oojq5FccZAZtyJ_p-6VT-362" target="oojq5FccZAZtyJ_p-6VT-350">
          <mxGeometry relative="1" as="geometry">
            <mxPoint x="232.0344827586207" y="412.7586206896549" as="targetPoint" />
          </mxGeometry>
        </mxCell>
        <mxCell id="oojq5FccZAZtyJ_p-6VT-365" value="while (word[i] != &#39;\0&#39;) { ... }" style="edgeLabel;html=1;align=center;verticalAlign=middle;resizable=0;points=[];" vertex="1" connectable="0" parent="oojq5FccZAZtyJ_p-6VT-360">
          <mxGeometry x="-0.6247" y="2" relative="1" as="geometry">
            <mxPoint x="3" y="10" as="offset" />
          </mxGeometry>
        </mxCell>
        <mxCell id="oojq5FccZAZtyJ_p-6VT-368" value="more characters!" style="edgeLabel;html=1;align=center;verticalAlign=middle;resizable=0;points=[];" vertex="1" connectable="0" parent="oojq5FccZAZtyJ_p-6VT-360">
          <mxGeometry x="-0.0201" y="-2" relative="1" as="geometry">
            <mxPoint x="44" y="-20" as="offset" />
          </mxGeometry>
        </mxCell>
        <mxCell id="oojq5FccZAZtyJ_p-6VT-359" value="Increment Character Index" style="rounded=1;whiteSpace=wrap;html=1;" vertex="1" parent="oojq5FccZAZtyJ_p-6VT-308">
          <mxGeometry x="125" y="592" width="87" height="58" as="geometry" />
        </mxCell>
        <mxCell id="oojq5FccZAZtyJ_p-6VT-366" style="edgeStyle=orthogonalEdgeStyle;rounded=0;orthogonalLoop=1;jettySize=auto;html=1;exitX=0;exitY=0.5;exitDx=0;exitDy=0;" edge="1" parent="oojq5FccZAZtyJ_p-6VT-308" source="oojq5FccZAZtyJ_p-6VT-362" target="oojq5FccZAZtyJ_p-6VT-367">
          <mxGeometry relative="1" as="geometry">
            <mxPoint x="52.41666666666674" y="665.416666666667" as="targetPoint" />
          </mxGeometry>
        </mxCell>
        <mxCell id="oojq5FccZAZtyJ_p-6VT-362" value="End of Word Check" style="rounded=1;whiteSpace=wrap;html=1;" vertex="1" parent="oojq5FccZAZtyJ_p-6VT-308">
          <mxGeometry x="125" y="486" width="87" height="58" as="geometry" />
        </mxCell>
        <mxCell id="oojq5FccZAZtyJ_p-6VT-363" value="" style="edgeStyle=orthogonalEdgeStyle;rounded=0;orthogonalLoop=1;jettySize=auto;html=1;exitX=0.5;exitY=0;exitDx=0;exitDy=0;entryX=0.5;entryY=1;entryDx=0;entryDy=0;" edge="1" parent="oojq5FccZAZtyJ_p-6VT-308" source="oojq5FccZAZtyJ_p-6VT-359" target="oojq5FccZAZtyJ_p-6VT-362">
          <mxGeometry relative="1" as="geometry">
            <mxPoint x="317" y="2812" as="targetPoint" />
            <mxPoint x="241" y="3004" as="sourcePoint" />
          </mxGeometry>
        </mxCell>
        <mxCell id="oojq5FccZAZtyJ_p-6VT-364" value="i++;" style="edgeLabel;html=1;align=center;verticalAlign=middle;resizable=0;points=[];" vertex="1" connectable="0" parent="oojq5FccZAZtyJ_p-6VT-363">
          <mxGeometry x="-0.0859" relative="1" as="geometry">
            <mxPoint x="3" y="5" as="offset" />
          </mxGeometry>
        </mxCell>
        <mxCell id="oojq5FccZAZtyJ_p-6VT-367" value="&lt;b&gt;Return Total Word Width&lt;/b&gt;" style="rounded=1;whiteSpace=wrap;html=1;fillColor=#dae8fc;strokeColor=#6c8ebf;" vertex="1" parent="oojq5FccZAZtyJ_p-6VT-308">
          <mxGeometry x="23" y="681" width="87" height="58" as="geometry" />
        </mxCell>
        <mxCell id="oojq5FccZAZtyJ_p-6VT-968" style="edgeStyle=orthogonalEdgeStyle;rounded=0;orthogonalLoop=1;jettySize=auto;html=1;exitX=0.012;exitY=0.546;exitDx=0;exitDy=0;entryX=0.504;entryY=0.969;entryDx=0;entryDy=0;exitPerimeter=0;entryPerimeter=0;" edge="1" parent="oojq5FccZAZtyJ_p-6VT-308" source="oojq5FccZAZtyJ_p-6VT-349" target="oojq5FccZAZtyJ_p-6VT-359">
          <mxGeometry relative="1" as="geometry">
            <mxPoint x="490.83000000000004" y="734" as="sourcePoint" />
            <mxPoint x="158.82999999999998" y="659" as="targetPoint" />
          </mxGeometry>
        </mxCell>
        <mxCell id="oojq5FccZAZtyJ_p-6VT-969" value="skip character, increment i and continue" style="edgeLabel;html=1;align=center;verticalAlign=middle;resizable=0;points=[];" vertex="1" connectable="0" parent="oojq5FccZAZtyJ_p-6VT-968">
          <mxGeometry x="-0.2301" y="1" relative="1" as="geometry">
            <mxPoint x="1" as="offset" />
          </mxGeometry>
        </mxCell>
        <mxCell id="oojq5FccZAZtyJ_p-6VT-369" style="edgeStyle=orthogonalEdgeStyle;rounded=0;orthogonalLoop=1;jettySize=auto;html=1;exitX=0.5;exitY=1;exitDx=0;exitDy=0;entryX=0.5;entryY=0;entryDx=0;entryDy=0;" edge="1" parent="eq5a8P7IdpTRvWQ2f0uo-113" source="oojq5FccZAZtyJ_p-6VT-367" target="oojq5FccZAZtyJ_p-6VT-242">
          <mxGeometry relative="1" as="geometry" />
        </mxCell>
        <mxCell id="oojq5FccZAZtyJ_p-6VT-371" value="return totalWidth;" style="edgeLabel;html=1;align=center;verticalAlign=middle;resizable=0;points=[];" vertex="1" connectable="0" parent="oojq5FccZAZtyJ_p-6VT-369">
          <mxGeometry x="0.0026" y="-2" relative="1" as="geometry">
            <mxPoint as="offset" />
          </mxGeometry>
        </mxCell>
        <mxCell id="oojq5FccZAZtyJ_p-6VT-237" value="data passed:&lt;br&gt;currentX, currentY, height" style="shape=parallelogram;perimeter=parallelogramPerimeter;whiteSpace=wrap;html=1;fixedSize=1;fillColor=#e1d5e7;strokeColor=#9673a6;" vertex="1" parent="eq5a8P7IdpTRvWQ2f0uo-113">
          <mxGeometry x="312" y="1023.9999999999999" width="174" height="35" as="geometry" />
        </mxCell>
        <mxCell id="oojq5FccZAZtyJ_p-6VT-564" value="Start character processing loop&lt;br&gt;(i=0)" style="rounded=1;whiteSpace=wrap;html=1;" vertex="1" parent="eq5a8P7IdpTRvWQ2f0uo-113">
          <mxGeometry x="109" y="1655" width="107" height="64" as="geometry" />
        </mxCell>
        <mxCell id="oojq5FccZAZtyJ_p-6VT-565" value="" style="edgeStyle=orthogonalEdgeStyle;rounded=0;orthogonalLoop=1;jettySize=auto;html=1;exitX=0.5;exitY=1;exitDx=0;exitDy=0;" edge="1" parent="eq5a8P7IdpTRvWQ2f0uo-113" source="oojq5FccZAZtyJ_p-6VT-242" target="oojq5FccZAZtyJ_p-6VT-564">
          <mxGeometry relative="1" as="geometry">
            <mxPoint x="283" y="3613" as="targetPoint" />
            <mxPoint x="135" y="3289" as="sourcePoint" />
          </mxGeometry>
        </mxCell>
        <mxCell id="oojq5FccZAZtyJ_p-6VT-566" value="yes" style="edgeLabel;html=1;align=center;verticalAlign=middle;resizable=0;points=[];" vertex="1" connectable="0" parent="oojq5FccZAZtyJ_p-6VT-565">
          <mxGeometry x="-0.6675" y="-1" relative="1" as="geometry">
            <mxPoint as="offset" />
          </mxGeometry>
        </mxCell>
        <mxCell id="oojq5FccZAZtyJ_p-6VT-567" value="if (*currentX + wordWidth &amp;gt; maxWidth)" style="edgeLabel;html=1;align=center;verticalAlign=middle;resizable=0;points=[];" vertex="1" connectable="0" parent="oojq5FccZAZtyJ_p-6VT-565">
          <mxGeometry x="-0.882" relative="1" as="geometry">
            <mxPoint x="27" y="4" as="offset" />
          </mxGeometry>
        </mxCell>
        <mxCell id="oojq5FccZAZtyJ_p-6VT-572" value="" style="edgeStyle=orthogonalEdgeStyle;rounded=0;orthogonalLoop=1;jettySize=auto;html=1;" edge="1" parent="eq5a8P7IdpTRvWQ2f0uo-113" source="oojq5FccZAZtyJ_p-6VT-586" target="oojq5FccZAZtyJ_p-6VT-571">
          <mxGeometry relative="1" as="geometry" />
        </mxCell>
        <mxCell id="oojq5FccZAZtyJ_p-6VT-593" value="no" style="edgeLabel;html=1;align=center;verticalAlign=middle;resizable=0;points=[];" vertex="1" connectable="0" parent="oojq5FccZAZtyJ_p-6VT-572">
          <mxGeometry x="-0.3983" y="-1" relative="1" as="geometry">
            <mxPoint as="offset" />
          </mxGeometry>
        </mxCell>
        <mxCell id="oojq5FccZAZtyJ_p-6VT-592" style="edgeStyle=orthogonalEdgeStyle;rounded=0;orthogonalLoop=1;jettySize=auto;html=1;exitX=0.5;exitY=1;exitDx=0;exitDy=0;" edge="1" parent="eq5a8P7IdpTRvWQ2f0uo-113" source="oojq5FccZAZtyJ_p-6VT-570" target="oojq5FccZAZtyJ_p-6VT-586">
          <mxGeometry relative="1" as="geometry">
            <mxPoint x="172.49999999999955" y="1844" as="sourcePoint" />
          </mxGeometry>
        </mxCell>
        <mxCell id="oojq5FccZAZtyJ_p-6VT-570" value="Increment i++" style="rounded=1;whiteSpace=wrap;html=1;" vertex="1" parent="eq5a8P7IdpTRvWQ2f0uo-113">
          <mxGeometry x="129.00000000000006" y="1762" width="87" height="34" as="geometry" />
        </mxCell>
        <mxCell id="oojq5FccZAZtyJ_p-6VT-577" style="edgeStyle=orthogonalEdgeStyle;rounded=0;orthogonalLoop=1;jettySize=auto;html=1;exitX=0.5;exitY=1;exitDx=0;exitDy=0;curved=1;entryX=0.377;entryY=0.19;entryDx=0;entryDy=0;entryPerimeter=0;" edge="1" parent="eq5a8P7IdpTRvWQ2f0uo-113" source="oojq5FccZAZtyJ_p-6VT-571" target="oojq5FccZAZtyJ_p-6VT-576">
          <mxGeometry relative="1" as="geometry" />
        </mxCell>
        <mxCell id="oojq5FccZAZtyJ_p-6VT-571" value="Get character&lt;br&gt;c = word[i]" style="rounded=1;whiteSpace=wrap;html=1;" vertex="1" parent="eq5a8P7IdpTRvWQ2f0uo-113">
          <mxGeometry x="130.00000000000006" y="1910" width="87" height="34" as="geometry" />
        </mxCell>
        <mxCell id="oojq5FccZAZtyJ_p-6VT-578" style="edgeStyle=orthogonalEdgeStyle;rounded=0;orthogonalLoop=1;jettySize=auto;html=1;exitX=0.5;exitY=1;exitDx=0;exitDy=0;entryX=0.289;entryY=0.002;entryDx=0;entryDy=0;entryPerimeter=0;curved=1;" edge="1" parent="eq5a8P7IdpTRvWQ2f0uo-113" source="oojq5FccZAZtyJ_p-6VT-576" target="eq5a8P7IdpTRvWQ2f0uo-128">
          <mxGeometry relative="1" as="geometry" />
        </mxCell>
        <mxCell id="oojq5FccZAZtyJ_p-6VT-579" value="Valid strokes" style="edgeLabel;html=1;align=center;verticalAlign=middle;resizable=0;points=[];" vertex="1" connectable="0" parent="oojq5FccZAZtyJ_p-6VT-578">
          <mxGeometry x="-0.2191" y="-2" relative="1" as="geometry">
            <mxPoint x="11" y="-3" as="offset" />
          </mxGeometry>
        </mxCell>
        <mxCell id="oojq5FccZAZtyJ_p-6VT-576" value="Validate Character Strokes" style="rhombus;whiteSpace=wrap;html=1;rounded=1;fillColor=#f5f5f5;fontColor=#333333;strokeColor=#666666;" vertex="1" parent="eq5a8P7IdpTRvWQ2f0uo-113">
          <mxGeometry x="9.99999999999995" y="1991" width="241.79" height="45" as="geometry" />
        </mxCell>
        <mxCell id="oojq5FccZAZtyJ_p-6VT-580" style="edgeStyle=orthogonalEdgeStyle;rounded=0;orthogonalLoop=1;jettySize=auto;html=1;" edge="1" parent="eq5a8P7IdpTRvWQ2f0uo-113" target="oojq5FccZAZtyJ_p-6VT-582" source="oojq5FccZAZtyJ_p-6VT-576">
          <mxGeometry relative="1" as="geometry">
            <mxPoint x="393" y="1912" as="targetPoint" />
            <mxPoint x="323" y="2059" as="sourcePoint" />
          </mxGeometry>
        </mxCell>
        <mxCell id="oojq5FccZAZtyJ_p-6VT-581" value="INVALID" style="edgeLabel;html=1;align=center;verticalAlign=middle;resizable=0;points=[];" vertex="1" connectable="0" parent="oojq5FccZAZtyJ_p-6VT-580">
          <mxGeometry x="-0.0586" y="-1" relative="1" as="geometry">
            <mxPoint x="-17" y="-1" as="offset" />
          </mxGeometry>
        </mxCell>
        <mxCell id="oojq5FccZAZtyJ_p-6VT-582" value="[WARNING] No strokes data for character" style="rounded=1;whiteSpace=wrap;html=1;fillColor=#fff2cc;strokeColor=#FF3333;strokeWidth=2;" vertex="1" parent="eq5a8P7IdpTRvWQ2f0uo-113">
          <mxGeometry x="256" y="2055" width="132" height="39" as="geometry" />
        </mxCell>
        <mxCell id="oojq5FccZAZtyJ_p-6VT-585" style="edgeStyle=orthogonalEdgeStyle;rounded=0;orthogonalLoop=1;jettySize=auto;html=1;exitX=0.279;exitY=0.288;exitDx=0;exitDy=0;entryX=1;entryY=0.5;entryDx=0;entryDy=0;curved=1;exitPerimeter=0;" edge="1" parent="eq5a8P7IdpTRvWQ2f0uo-113" source="oojq5FccZAZtyJ_p-6VT-966" target="oojq5FccZAZtyJ_p-6VT-570">
          <mxGeometry relative="1" as="geometry">
            <mxPoint x="267.5999999999999" y="1410.3999999999996" as="targetPoint" />
            <mxPoint x="472.4999999999998" y="2125" as="sourcePoint" />
            <Array as="points">
              <mxPoint x="473" y="2022" />
              <mxPoint x="311" y="2022" />
              <mxPoint x="311" y="1779" />
            </Array>
          </mxGeometry>
        </mxCell>
        <mxCell id="oojq5FccZAZtyJ_p-6VT-594" value="yes" style="edgeLabel;html=1;align=center;verticalAlign=middle;resizable=0;points=[];" vertex="1" connectable="0" parent="oojq5FccZAZtyJ_p-6VT-585">
          <mxGeometry x="-0.9048" y="2" relative="1" as="geometry">
            <mxPoint as="offset" />
          </mxGeometry>
        </mxCell>
        <mxCell id="oojq5FccZAZtyJ_p-6VT-597" style="edgeStyle=orthogonalEdgeStyle;rounded=0;orthogonalLoop=1;jettySize=auto;html=1;exitX=0.451;exitY=0.073;exitDx=0;exitDy=0;curved=1;exitPerimeter=0;" edge="1" parent="eq5a8P7IdpTRvWQ2f0uo-113" source="oojq5FccZAZtyJ_p-6VT-966" target="oojq5FccZAZtyJ_p-6VT-598">
          <mxGeometry relative="1" as="geometry">
            <mxPoint x="534.8148148148148" y="1953.6296296296296" as="targetPoint" />
            <mxPoint x="505.7499999999993" y="2057" as="sourcePoint" />
            <Array as="points">
              <mxPoint x="512" y="2064" />
              <mxPoint x="512" y="2015" />
              <mxPoint x="565" y="2015" />
              <mxPoint x="565" y="2025" />
              <mxPoint x="605" y="2025" />
            </Array>
          </mxGeometry>
        </mxCell>
        <mxCell id="oojq5FccZAZtyJ_p-6VT-964" value="no" style="edgeLabel;html=1;align=center;verticalAlign=middle;resizable=0;points=[];" vertex="1" connectable="0" parent="oojq5FccZAZtyJ_p-6VT-597">
          <mxGeometry x="-0.6517" relative="1" as="geometry">
            <mxPoint as="offset" />
          </mxGeometry>
        </mxCell>
        <mxCell id="oojq5FccZAZtyJ_p-6VT-595" style="edgeStyle=orthogonalEdgeStyle;rounded=0;orthogonalLoop=1;jettySize=auto;html=1;exitX=0;exitY=0.5;exitDx=0;exitDy=0;entryX=0.5;entryY=0;entryDx=0;entryDy=0;" edge="1" parent="eq5a8P7IdpTRvWQ2f0uo-113" source="oojq5FccZAZtyJ_p-6VT-586" target="oojq5FccZAZtyJ_p-6VT-596">
          <mxGeometry relative="1" as="geometry">
            <mxPoint x="93.66666666666652" y="1840.2380952380954" as="targetPoint" />
          </mxGeometry>
        </mxCell>
        <mxCell id="oojq5FccZAZtyJ_p-6VT-599" value="yes" style="edgeLabel;html=1;align=center;verticalAlign=middle;resizable=0;points=[];" vertex="1" connectable="0" parent="oojq5FccZAZtyJ_p-6VT-595">
          <mxGeometry x="-0.2707" y="-3" relative="1" as="geometry">
            <mxPoint as="offset" />
          </mxGeometry>
        </mxCell>
        <mxCell id="oojq5FccZAZtyJ_p-6VT-586" value="End of word?" style="rounded=1;whiteSpace=wrap;html=1;" vertex="1" parent="eq5a8P7IdpTRvWQ2f0uo-113">
          <mxGeometry x="130.00000000000006" y="1823" width="87" height="34" as="geometry" />
        </mxCell>
        <mxCell id="oojq5FccZAZtyJ_p-6VT-596" value="&lt;b&gt;Return SUCCESS&lt;/b&gt;" style="rounded=1;whiteSpace=wrap;html=1;fillColor=#dae8fc;strokeColor=#6c8ebf;" vertex="1" parent="eq5a8P7IdpTRvWQ2f0uo-113">
          <mxGeometry x="20.500000000000057" y="1867" width="87" height="34" as="geometry" />
        </mxCell>
        <mxCell id="oojq5FccZAZtyJ_p-6VT-613" style="edgeStyle=orthogonalEdgeStyle;rounded=0;orthogonalLoop=1;jettySize=auto;html=1;exitX=0.5;exitY=0;exitDx=0;exitDy=0;" edge="1" parent="eq5a8P7IdpTRvWQ2f0uo-113" source="oojq5FccZAZtyJ_p-6VT-598">
          <mxGeometry relative="1" as="geometry">
            <mxPoint x="617.2857142857144" y="1908.5" as="targetPoint" />
          </mxGeometry>
        </mxCell>
        <mxCell id="oojq5FccZAZtyJ_p-6VT-598" value="printf:&quot;[ERROR] Failed to generate G-Code for character &#39;%c&#39;&quot;" style="rounded=1;whiteSpace=wrap;html=1;fillColor=#f8cecc;strokeColor=#FF3333;strokeWidth=2;" vertex="1" parent="eq5a8P7IdpTRvWQ2f0uo-113">
          <mxGeometry x="511" y="1962" width="213" height="44" as="geometry" />
        </mxCell>
        <mxCell id="oojq5FccZAZtyJ_p-6VT-614" value="Return EXIT_FAILURE" style="whiteSpace=wrap;html=1;fillColor=#f8cecc;strokeColor=#b85450;rounded=1;" vertex="1" parent="eq5a8P7IdpTRvWQ2f0uo-113">
          <mxGeometry x="569" y="1862" width="97" height="44.5" as="geometry" />
        </mxCell>
        <mxCell id="oojq5FccZAZtyJ_p-6VT-697" style="edgeStyle=orthogonalEdgeStyle;rounded=0;orthogonalLoop=1;jettySize=auto;html=1;exitX=0.5;exitY=1;exitDx=0;exitDy=0;" edge="1" parent="eq5a8P7IdpTRvWQ2f0uo-113" source="oojq5FccZAZtyJ_p-6VT-694" target="oojq5FccZAZtyJ_p-6VT-564">
          <mxGeometry relative="1" as="geometry">
            <Array as="points">
              <mxPoint x="321" y="1625" />
              <mxPoint x="173" y="1625" />
            </Array>
          </mxGeometry>
        </mxCell>
        <mxCell id="oojq5FccZAZtyJ_p-6VT-966" value="Was G-Code generation &lt;br&gt;a SUCCESS?" style="rhombus;whiteSpace=wrap;html=1;rounded=1;fillColor=#f5f5f5;fontColor=#333333;strokeColor=#666666;" vertex="1" parent="eq5a8P7IdpTRvWQ2f0uo-113">
          <mxGeometry x="405" y="2061" width="241.79" height="57" as="geometry" />
        </mxCell>
        <mxCell id="oojq5FccZAZtyJ_p-6VT-292" style="edgeStyle=orthogonalEdgeStyle;rounded=0;orthogonalLoop=1;jettySize=auto;html=1;exitX=0.5;exitY=1;exitDx=0;exitDy=0;" edge="1" parent="oojq5FccZAZtyJ_p-6VT-62" source="oojq5FccZAZtyJ_p-6VT-283" target="eq5a8P7IdpTRvWQ2f0uo-113">
          <mxGeometry relative="1" as="geometry" />
        </mxCell>
        <mxCell id="oojq5FccZAZtyJ_p-6VT-293" value="data passed:&lt;br&gt;word, fontdata, currentX, currentY, height" style="shape=parallelogram;perimeter=parallelogramPerimeter;whiteSpace=wrap;html=1;fixedSize=1;fillColor=#e1d5e7;strokeColor=#9673a6;" vertex="1" parent="oojq5FccZAZtyJ_p-6VT-62">
          <mxGeometry x="262" y="955" width="297.3" height="35" as="geometry" />
        </mxCell>
        <mxCell id="oojq5FccZAZtyJ_p-6VT-600" value="" style="endArrow=classic;html=1;rounded=0;exitX=0.876;exitY=0;exitDx=0;exitDy=0;exitPerimeter=0;entryX=1;entryY=0.5;entryDx=0;entryDy=0;edgeStyle=orthogonalEdgeStyle;curved=1;" edge="1" parent="oojq5FccZAZtyJ_p-6VT-62" source="eq5a8P7IdpTRvWQ2f0uo-113" target="oojq5FccZAZtyJ_p-6VT-100">
          <mxGeometry width="50" height="50" relative="1" as="geometry">
            <mxPoint x="427" y="804" as="sourcePoint" />
            <mxPoint x="477" y="754" as="targetPoint" />
            <Array as="points">
              <mxPoint x="724" y="1018" />
              <mxPoint x="724" y="572" />
            </Array>
          </mxGeometry>
        </mxCell>
        <mxCell id="oojq5FccZAZtyJ_p-6VT-601" value="&lt;b&gt;&lt;font color=&quot;#009900&quot;&gt;processWord&lt;br&gt;returned&lt;br&gt;SUCCESS&lt;/font&gt;&lt;/b&gt;" style="edgeLabel;html=1;align=center;verticalAlign=middle;resizable=0;points=[];" vertex="1" connectable="0" parent="oojq5FccZAZtyJ_p-6VT-600">
          <mxGeometry x="-0.0697" y="3" relative="1" as="geometry">
            <mxPoint y="149" as="offset" />
          </mxGeometry>
        </mxCell>
        <mxCell id="oojq5FccZAZtyJ_p-6VT-612" value="wordIndex = 0" style="edgeLabel;html=1;align=center;verticalAlign=middle;resizable=0;points=[];" vertex="1" connectable="0" parent="oojq5FccZAZtyJ_p-6VT-600">
          <mxGeometry x="-0.2673" y="1" relative="1" as="geometry">
            <mxPoint as="offset" />
          </mxGeometry>
        </mxCell>
        <mxCell id="CUD6jWlpT54n8mRUWq0n-36" value="&lt;b&gt;&lt;font style=&quot;font-size: 16px;&quot;&gt;Read Character&lt;/font&gt;&lt;/b&gt;" style="rounded=1;whiteSpace=wrap;html=1;" parent="oojq5FccZAZtyJ_p-6VT-62" vertex="1">
          <mxGeometry x="269.5" y="557" width="132" height="30" as="geometry" />
        </mxCell>
        <mxCell id="Ag3rg4LRfrvqD565A-uZ-27" style="edgeStyle=orthogonalEdgeStyle;rounded=0;orthogonalLoop=1;jettySize=auto;html=1;entryX=0.5;entryY=0;entryDx=0;entryDy=0;curved=1;" parent="oojq5FccZAZtyJ_p-6VT-62" source="oojq5FccZAZtyJ_p-6VT-96" target="CUD6jWlpT54n8mRUWq0n-36" edge="1">
          <mxGeometry relative="1" as="geometry">
            <mxPoint x="313.75" y="836" as="targetPoint" />
            <mxPoint x="309.29999999999995" y="716" as="sourcePoint" />
          </mxGeometry>
        </mxCell>
        <mxCell id="oojq5FccZAZtyJ_p-6VT-134" value="&lt;li class=&quot;whitespace-normal break-words&quot;&gt;word[256] = {0}&lt;/li&gt;&lt;br&gt;&lt;li class=&quot;whitespace-normal break-words&quot;&gt;wordIndex = 0&lt;/li&gt;&lt;br&gt;&lt;li class=&quot;whitespace-normal break-words&quot;&gt;currentX = 0.0f&lt;/li&gt;&lt;br&gt;&lt;li class=&quot;whitespace-normal break-words&quot;&gt;currentY = -height&lt;/li&gt;&lt;br&gt;&lt;li class=&quot;whitespace-normal break-words&quot;&gt;lineCount = 1&lt;/li&gt;" style="edgeLabel;html=1;align=left;verticalAlign=middle;resizable=0;points=[];" vertex="1" connectable="0" parent="Ag3rg4LRfrvqD565A-uZ-27">
          <mxGeometry x="-0.7505" y="3" relative="1" as="geometry">
            <mxPoint x="-27" y="115" as="offset" />
          </mxGeometry>
        </mxCell>
        <mxCell id="Ag3rg4LRfrvqD565A-uZ-115" style="edgeStyle=orthogonalEdgeStyle;rounded=0;orthogonalLoop=1;jettySize=auto;html=1;exitX=0;exitY=0.5;exitDx=0;exitDy=0;entryX=1;entryY=0.5;entryDx=0;entryDy=0;" parent="oojq5FccZAZtyJ_p-6VT-62" source="oojq5FccZAZtyJ_p-6VT-100" target="CUD6jWlpT54n8mRUWq0n-36" edge="1">
          <mxGeometry relative="1" as="geometry">
            <Array as="points" />
          </mxGeometry>
        </mxCell>
        <mxCell id="oojq5FccZAZtyJ_p-6VT-376" style="edgeStyle=orthogonalEdgeStyle;rounded=0;orthogonalLoop=1;jettySize=auto;html=1;exitX=0.5;exitY=1;exitDx=0;exitDy=0;" edge="1" parent="oojq5FccZAZtyJ_p-6VT-62" source="CUD6jWlpT54n8mRUWq0n-36" target="oojq5FccZAZtyJ_p-6VT-279">
          <mxGeometry relative="1" as="geometry" />
        </mxCell>
        <mxCell id="oojq5FccZAZtyJ_p-6VT-607" value="fgetc(file)" style="edgeLabel;html=1;align=center;verticalAlign=middle;resizable=0;points=[];" vertex="1" connectable="0" parent="oojq5FccZAZtyJ_p-6VT-376">
          <mxGeometry x="-0.3474" y="1" relative="1" as="geometry">
            <mxPoint as="offset" />
          </mxGeometry>
        </mxCell>
        <mxCell id="oojq5FccZAZtyJ_p-6VT-609" value="End Word" style="rounded=1;whiteSpace=wrap;html=1;" vertex="1" parent="oojq5FccZAZtyJ_p-6VT-62">
          <mxGeometry x="463" y="808" width="115.65" height="31" as="geometry" />
        </mxCell>
        <mxCell id="oojq5FccZAZtyJ_p-6VT-610" value="" style="edgeStyle=orthogonalEdgeStyle;rounded=0;orthogonalLoop=1;jettySize=auto;html=1;exitX=0.5;exitY=1;exitDx=0;exitDy=0;curved=1;" edge="1" parent="oojq5FccZAZtyJ_p-6VT-62" source="oojq5FccZAZtyJ_p-6VT-281" target="oojq5FccZAZtyJ_p-6VT-609">
          <mxGeometry relative="1" as="geometry">
            <mxPoint x="588" y="2045" as="targetPoint" />
            <mxPoint x="513" y="1964" as="sourcePoint" />
          </mxGeometry>
        </mxCell>
        <mxCell id="oojq5FccZAZtyJ_p-6VT-980" style="edgeStyle=orthogonalEdgeStyle;rounded=0;orthogonalLoop=1;jettySize=auto;html=1;exitX=1.006;exitY=0.467;exitDx=0;exitDy=0;exitPerimeter=0;" edge="1" parent="oojq5FccZAZtyJ_p-6VT-62" source="oojq5FccZAZtyJ_p-6VT-982" target="oojq5FccZAZtyJ_p-6VT-981">
          <mxGeometry relative="1" as="geometry">
            <mxPoint x="417.2" y="4082" as="targetPoint" />
          </mxGeometry>
        </mxCell>
        <mxCell id="oojq5FccZAZtyJ_p-6VT-981" value="&lt;b&gt;Return: EXIT_FAILURE&lt;/b&gt;" style="rounded=1;whiteSpace=wrap;html=1;fillColor=#f8cecc;strokeColor=#b85450;" vertex="1" parent="oojq5FccZAZtyJ_p-6VT-62">
          <mxGeometry x="657.7" y="4084" width="101" height="36" as="geometry" />
        </mxCell>
        <mxCell id="oojq5FccZAZtyJ_p-6VT-982" value="Close file" style="rounded=1;whiteSpace=wrap;html=1;" vertex="1" parent="oojq5FccZAZtyJ_p-6VT-62">
          <mxGeometry x="565" y="4084" width="62" height="37" as="geometry" />
        </mxCell>
        <mxCell id="oojq5FccZAZtyJ_p-6VT-983" value="&lt;font style=&quot;&quot; color=&quot;#ff0000&quot;&gt;&lt;b&gt;processWord&lt;/b&gt;&lt;br&gt;returned&lt;br&gt;!= SUCCESS&lt;/font&gt;" style="edgeLabel;html=1;align=center;verticalAlign=middle;resizable=0;points=[];" vertex="1" connectable="0" parent="oojq5FccZAZtyJ_p-6VT-62">
          <mxGeometry x="211.9993333333335" y="4027" as="geometry" />
        </mxCell>
        <mxCell id="oojq5FccZAZtyJ_p-6VT-984" value="&lt;font style=&quot;&quot; color=&quot;#ff0000&quot;&gt;&lt;b&gt;handleLineBreak&lt;/b&gt;&lt;br&gt;returned&lt;br&gt;!= SUCCESS&lt;/font&gt;" style="edgeLabel;html=1;align=center;verticalAlign=middle;resizable=0;points=[];" vertex="1" connectable="0" parent="oojq5FccZAZtyJ_p-6VT-62">
          <mxGeometry x="425" y="4027.003333333334" as="geometry" />
        </mxCell>
        <mxCell id="oojq5FccZAZtyJ_p-6VT-979" value="printf([ERROR] Word processing failed for &#39;%s&#39;)" style="rounded=1;whiteSpace=wrap;html=1;fillColor=#f5f5f5;strokeColor=#666666;fontColor=#333333;" vertex="1" parent="oojq5FccZAZtyJ_p-6VT-62">
          <mxGeometry x="3.5" y="4055" width="258.5" height="27" as="geometry" />
        </mxCell>
        <mxCell id="oojq5FccZAZtyJ_p-6VT-990" value="printf([ERROR] Line break failed at line%d)" style="rounded=1;whiteSpace=wrap;html=1;fillColor=#f5f5f5;strokeColor=#666666;fontColor=#333333;" vertex="1" parent="oojq5FccZAZtyJ_p-6VT-62">
          <mxGeometry x="265" y="4055" width="258.5" height="27" as="geometry" />
        </mxCell>
        <mxCell id="oojq5FccZAZtyJ_p-6VT-991" style="edgeStyle=orthogonalEdgeStyle;rounded=0;orthogonalLoop=1;jettySize=auto;html=1;" edge="1" parent="oojq5FccZAZtyJ_p-6VT-62" source="oojq5FccZAZtyJ_p-6VT-979" target="oojq5FccZAZtyJ_p-6VT-982">
          <mxGeometry relative="1" as="geometry">
            <mxPoint x="536" y="4199" as="targetPoint" />
            <mxPoint x="243" y="4333" as="sourcePoint" />
            <Array as="points">
              <mxPoint x="133" y="4104" />
            </Array>
          </mxGeometry>
        </mxCell>
        <mxCell id="oojq5FccZAZtyJ_p-6VT-708" style="edgeStyle=orthogonalEdgeStyle;rounded=0;orthogonalLoop=1;jettySize=auto;html=1;entryX=1;entryY=0.5;entryDx=0;entryDy=0;" edge="1" parent="1" source="oojq5FccZAZtyJ_p-6VT-700" target="oojq5FccZAZtyJ_p-6VT-83">
          <mxGeometry relative="1" as="geometry" />
        </mxCell>
        <mxCell id="oojq5FccZAZtyJ_p-6VT-700" value="&lt;span style=&quot;color: rgb(51, 51, 51);&quot;&gt;printf: &quot;[ERROR] Text processing failed. Please try again&quot;&lt;/span&gt;" style="whiteSpace=wrap;html=1;rounded=1;shadow=0;fillColor=#f8cecc;strokeColor=#b85450;strokeWidth=2;" vertex="1" parent="1">
          <mxGeometry x="620.75" y="1001" width="199.25" height="38.5" as="geometry" />
        </mxCell>
        <mxCell id="oojq5FccZAZtyJ_p-6VT-706" value="" style="endArrow=none;html=1;rounded=0;exitX=1;exitY=0.5;exitDx=0;exitDy=0;" edge="1" parent="1" source="oojq5FccZAZtyJ_p-6VT-22">
          <mxGeometry width="50" height="50" relative="1" as="geometry">
            <mxPoint x="557" y="-671" as="sourcePoint" />
            <mxPoint x="780" y="-754" as="targetPoint" />
          </mxGeometry>
        </mxCell>
        <mxCell id="oojq5FccZAZtyJ_p-6VT-707" value="no" style="edgeLabel;html=1;align=center;verticalAlign=middle;resizable=0;points=[];" vertex="1" connectable="0" parent="oojq5FccZAZtyJ_p-6VT-706">
          <mxGeometry x="0.0977" y="-3" relative="1" as="geometry">
            <mxPoint x="-212" y="8" as="offset" />
          </mxGeometry>
        </mxCell>
        <mxCell id="oojq5FccZAZtyJ_p-6VT-714" value="" style="edgeStyle=orthogonalEdgeStyle;rounded=0;orthogonalLoop=1;jettySize=auto;html=1;" edge="1" parent="1" target="oojq5FccZAZtyJ_p-6VT-713">
          <mxGeometry relative="1" as="geometry">
            <mxPoint x="215" y="5530" as="targetPoint" />
            <mxPoint x="191" y="5273" as="sourcePoint" />
          </mxGeometry>
        </mxCell>
        <mxCell id="oojq5FccZAZtyJ_p-6VT-715" value="&lt;span style=&quot;color: rgba(0, 0, 0, 0); font-family: monospace; font-size: 0px; text-align: start; background-color: rgb(251, 251, 251);&quot;&gt;%3CmxGraphModel%3E%3Croot%3E%3CmxCell%20id%3D%220%22%2F%3E%3CmxCell%20id%3D%221%22%20parent%3D%220%22%2F%3E%3CmxCell%20id%3D%222%22%20value%3D%22%26lt%3Bb%26gt%3B%26lt%3Bfont%20color%3D%26quot%3B%23009900%26quot%3B%26gt%3BprocessWord%26lt%3Bbr%26gt%3Breturned%26lt%3Bbr%26gt%3BSUCCESS%26lt%3B%2Ffont%26gt%3B%26lt%3B%2Fb%26gt%3B%22%20style%3D%22edgeLabel%3Bhtml%3D1%3Balign%3Dcenter%3BverticalAlign%3Dmiddle%3Bresizable%3D0%3Bpoints%3D%5B%5D%3B%22%20vertex%3D%221%22%20connectable%3D%220%22%20parent%3D%221%22%3E%3CmxGeometry%20x%3D%22751.0000000000005%22%20y%3D%222007.2416521739137%22%20as%3D%22geometry%22%2F%3E%3C%2FmxCell%3E%3C%2Froot%3E%3C%2FmxGraphModel%3E&lt;/span&gt;" style="edgeLabel;html=1;align=center;verticalAlign=middle;resizable=0;points=[];" vertex="1" connectable="0" parent="oojq5FccZAZtyJ_p-6VT-714">
          <mxGeometry x="-0.1573" y="-1" relative="1" as="geometry">
            <mxPoint as="offset" />
          </mxGeometry>
        </mxCell>
        <mxCell id="oojq5FccZAZtyJ_p-6VT-719" value="" style="edgeStyle=orthogonalEdgeStyle;rounded=0;orthogonalLoop=1;jettySize=auto;html=1;" edge="1" parent="1" source="oojq5FccZAZtyJ_p-6VT-713" target="oojq5FccZAZtyJ_p-6VT-718">
          <mxGeometry relative="1" as="geometry" />
        </mxCell>
        <mxCell id="oojq5FccZAZtyJ_p-6VT-713" value="printf: &quot;Text Processing is complete!&quot;" style="whiteSpace=wrap;html=1;rounded=1;" vertex="1" parent="1">
          <mxGeometry x="83.00000000000001" y="5358.45" width="215.67" height="35" as="geometry" />
        </mxCell>
        <mxCell id="oojq5FccZAZtyJ_p-6VT-712" value="&lt;b&gt;&lt;font color=&quot;#009900&quot;&gt;processTextFile &lt;br&gt;returned&lt;br&gt;SUCCESS&lt;/font&gt;&lt;/b&gt;" style="edgeLabel;html=1;align=center;verticalAlign=middle;resizable=0;points=[];" vertex="1" connectable="0" parent="1">
          <mxGeometry x="222.00000000000045" y="5588.001652173914" as="geometry">
            <mxPoint x="-31" y="-281" as="offset" />
          </mxGeometry>
        </mxCell>
        <mxCell id="oojq5FccZAZtyJ_p-6VT-726" style="edgeStyle=orthogonalEdgeStyle;rounded=0;orthogonalLoop=1;jettySize=auto;html=1;exitX=1;exitY=0.5;exitDx=0;exitDy=0;entryX=0.5;entryY=0;entryDx=0;entryDy=0;" edge="1" parent="1" source="oojq5FccZAZtyJ_p-6VT-718" target="oojq5FccZAZtyJ_p-6VT-727">
          <mxGeometry relative="1" as="geometry">
            <mxPoint x="434" y="5443" as="targetPoint" />
            <Array as="points">
              <mxPoint x="311" y="5445" />
              <mxPoint x="311" y="5292" />
              <mxPoint x="554" y="5292" />
            </Array>
          </mxGeometry>
        </mxCell>
        <mxCell id="oojq5FccZAZtyJ_p-6VT-718" value="call Cleanup Resources" style="whiteSpace=wrap;html=1;rounded=1;" vertex="1" parent="1">
          <mxGeometry x="121.17" y="5428" width="139.33" height="35" as="geometry" />
        </mxCell>
        <mxCell id="oojq5FccZAZtyJ_p-6VT-723" value="" style="edgeStyle=orthogonalEdgeStyle;rounded=0;orthogonalLoop=1;jettySize=auto;html=1;" edge="1" parent="1" source="oojq5FccZAZtyJ_p-6VT-720" target="oojq5FccZAZtyJ_p-6VT-722">
          <mxGeometry relative="1" as="geometry" />
        </mxCell>
        <mxCell id="oojq5FccZAZtyJ_p-6VT-728" value="SendCommands(&quot;G0 X0 Y0\n&quot;);" style="edgeLabel;html=1;align=center;verticalAlign=middle;resizable=0;points=[];" vertex="1" connectable="0" parent="oojq5FccZAZtyJ_p-6VT-723">
          <mxGeometry x="-0.3545" relative="1" as="geometry">
            <mxPoint as="offset" />
          </mxGeometry>
        </mxCell>
        <mxCell id="oojq5FccZAZtyJ_p-6VT-720" value="Return Pen to Origin" style="whiteSpace=wrap;html=1;rounded=1;" vertex="1" parent="1">
          <mxGeometry x="83.00000000000001" y="5553" width="215.67" height="35" as="geometry" />
        </mxCell>
        <mxCell id="oojq5FccZAZtyJ_p-6VT-725" value="" style="edgeStyle=orthogonalEdgeStyle;rounded=0;orthogonalLoop=1;jettySize=auto;html=1;" edge="1" parent="1" source="oojq5FccZAZtyJ_p-6VT-722" target="oojq5FccZAZtyJ_p-6VT-729">
          <mxGeometry relative="1" as="geometry">
            <mxPoint x="190.83500000000004" y="5708" as="targetPoint" />
          </mxGeometry>
        </mxCell>
        <mxCell id="oojq5FccZAZtyJ_p-6VT-730" value="&lt;span style=&quot;color: rgba(0, 0, 0, 0); font-family: monospace; font-size: 0px; text-align: start; background-color: rgb(251, 251, 251);&quot;&gt;%3CmxGraphModel%3E%3Croot%3E%3CmxCell%20id%3D%220%22%2F%3E%3CmxCell%20id%3D%221%22%20parent%3D%220%22%2F%3E%3CmxCell%20id%3D%222%22%20value%3D%22Return%20Pen%20to%20Origin%22%20style%3D%22whiteSpace%3Dwrap%3Bhtml%3D1%3Brounded%3D1%3B%22%20vertex%3D%221%22%20parent%3D%221%22%3E%3CmxGeometry%20x%3D%22119.00000000000001%22%20y%3D%225475%22%20width%3D%22215.67%22%20height%3D%2235%22%20as%3D%22geometry%22%2F%3E%3C%2FmxCell%3E%3C%2Froot%3E%3C%2FmxGraphModel%3E&lt;/span&gt;" style="edgeLabel;html=1;align=center;verticalAlign=middle;resizable=0;points=[];" vertex="1" connectable="0" parent="oojq5FccZAZtyJ_p-6VT-725">
          <mxGeometry x="-0.2192" y="4" relative="1" as="geometry">
            <mxPoint as="offset" />
          </mxGeometry>
        </mxCell>
        <mxCell id="oojq5FccZAZtyJ_p-6VT-731" value="CloseRS232Port();" style="edgeLabel;html=1;align=center;verticalAlign=middle;resizable=0;points=[];" vertex="1" connectable="0" parent="oojq5FccZAZtyJ_p-6VT-725">
          <mxGeometry x="-0.3673" y="-1" relative="1" as="geometry">
            <mxPoint as="offset" />
          </mxGeometry>
        </mxCell>
        <mxCell id="oojq5FccZAZtyJ_p-6VT-722" value="&lt;table&gt;&lt;tbody&gt;&lt;tr&gt;&lt;td&gt;&lt;strong&gt;&lt;/strong&gt;&lt;/td&gt;&lt;/tr&gt;&lt;/tbody&gt;&lt;/table&gt;&lt;table&gt;&lt;tbody&gt;&lt;tr&gt;&lt;td&gt;Close Serial Port&lt;/td&gt;&lt;/tr&gt;&lt;/tbody&gt;&lt;/table&gt;" style="whiteSpace=wrap;html=1;rounded=1;" vertex="1" parent="1">
          <mxGeometry x="129.82999999999998" y="5636" width="122" height="32" as="geometry" />
        </mxCell>
        <mxCell id="oojq5FccZAZtyJ_p-6VT-760" style="edgeStyle=orthogonalEdgeStyle;rounded=0;orthogonalLoop=1;jettySize=auto;html=1;exitX=0;exitY=0.5;exitDx=0;exitDy=0;entryX=0.5;entryY=0;entryDx=0;entryDy=0;" edge="1" parent="1" source="oojq5FccZAZtyJ_p-6VT-727" target="oojq5FccZAZtyJ_p-6VT-720">
          <mxGeometry relative="1" as="geometry" />
        </mxCell>
        <mxCell id="oojq5FccZAZtyJ_p-6VT-727" value="call: freeFontData()" style="swimlane;whiteSpace=wrap;html=1;fillColor=#ffff88;strokeColor=#36393d;" vertex="1" parent="1">
          <mxGeometry x="342.55" y="5312" width="423.45" height="424" as="geometry" />
        </mxCell>
        <mxCell id="oojq5FccZAZtyJ_p-6VT-734" style="edgeStyle=orthogonalEdgeStyle;rounded=0;orthogonalLoop=1;jettySize=auto;html=1;exitX=1;exitY=0.5;exitDx=0;exitDy=0;" edge="1" parent="oojq5FccZAZtyJ_p-6VT-727" source="oojq5FccZAZtyJ_p-6VT-736" target="oojq5FccZAZtyJ_p-6VT-737">
          <mxGeometry relative="1" as="geometry" />
        </mxCell>
        <mxCell id="oojq5FccZAZtyJ_p-6VT-735" value="INVALID" style="edgeLabel;html=1;align=center;verticalAlign=middle;resizable=0;points=[];" vertex="1" connectable="0" parent="oojq5FccZAZtyJ_p-6VT-734">
          <mxGeometry x="-0.1526" y="-1" relative="1" as="geometry">
            <mxPoint as="offset" />
          </mxGeometry>
        </mxCell>
        <mxCell id="oojq5FccZAZtyJ_p-6VT-736" value="Validate&amp;nbsp;Font Pointer" style="rhombus;whiteSpace=wrap;html=1;rounded=1;" vertex="1" parent="oojq5FccZAZtyJ_p-6VT-727">
          <mxGeometry x="11.120000000000005" y="34" width="148.83" height="80" as="geometry" />
        </mxCell>
        <mxCell id="oojq5FccZAZtyJ_p-6VT-761" style="edgeStyle=orthogonalEdgeStyle;rounded=0;orthogonalLoop=1;jettySize=auto;html=1;exitX=0.75;exitY=1;exitDx=0;exitDy=0;entryX=0.5;entryY=0;entryDx=0;entryDy=0;" edge="1" parent="oojq5FccZAZtyJ_p-6VT-727" source="oojq5FccZAZtyJ_p-6VT-737" target="oojq5FccZAZtyJ_p-6VT-738">
          <mxGeometry relative="1" as="geometry" />
        </mxCell>
        <mxCell id="oojq5FccZAZtyJ_p-6VT-737" value="&lt;font style=&quot;font-size: 10px;&quot;&gt;printf(&quot;Error: Cannot free NULL font data)&lt;/font&gt;" style="rounded=1;whiteSpace=wrap;html=1;fillColor=#f5f5f5;strokeColor=#666666;fontColor=#333333;" vertex="1" parent="oojq5FccZAZtyJ_p-6VT-727">
          <mxGeometry x="222" y="56" width="193" height="36" as="geometry" />
        </mxCell>
        <mxCell id="oojq5FccZAZtyJ_p-6VT-738" value="&lt;font style=&quot;font-size: 10px;&quot;&gt;Return EXIT_INVALID_PARAMS&lt;/font&gt;" style="whiteSpace=wrap;html=1;fillColor=#f8cecc;strokeColor=#b85450;rounded=1;" vertex="1" parent="oojq5FccZAZtyJ_p-6VT-727">
          <mxGeometry x="288.45" y="114" width="123.96" height="37.75" as="geometry" />
        </mxCell>
        <mxCell id="oojq5FccZAZtyJ_p-6VT-740" value="" style="edgeStyle=orthogonalEdgeStyle;rounded=0;orthogonalLoop=1;jettySize=auto;html=1;exitX=0.5;exitY=1;exitDx=0;exitDy=0;entryX=0.318;entryY=0.069;entryDx=0;entryDy=0;entryPerimeter=0;" edge="1" parent="oojq5FccZAZtyJ_p-6VT-727" source="oojq5FccZAZtyJ_p-6VT-736" target="oojq5FccZAZtyJ_p-6VT-744">
          <mxGeometry relative="1" as="geometry">
            <mxPoint x="154.40999999999997" y="4018" as="sourcePoint" />
            <mxPoint x="85.40999999999997" y="149" as="targetPoint" />
          </mxGeometry>
        </mxCell>
        <mxCell id="oojq5FccZAZtyJ_p-6VT-741" value="Valid" style="edgeLabel;html=1;align=center;verticalAlign=middle;resizable=0;points=[];" vertex="1" connectable="0" parent="oojq5FccZAZtyJ_p-6VT-740">
          <mxGeometry x="-0.4391" y="-3" relative="1" as="geometry">
            <mxPoint as="offset" />
          </mxGeometry>
        </mxCell>
        <mxCell id="oojq5FccZAZtyJ_p-6VT-743" value="if (!font)" style="text;html=1;align=center;verticalAlign=middle;resizable=0;points=[];autosize=1;strokeColor=none;fillColor=none;" vertex="1" parent="oojq5FccZAZtyJ_p-6VT-727">
          <mxGeometry x="56.02999999999997" y="79" width="59" height="26" as="geometry" />
        </mxCell>
        <mxCell id="oojq5FccZAZtyJ_p-6VT-746" value="" style="edgeStyle=orthogonalEdgeStyle;rounded=0;orthogonalLoop=1;jettySize=auto;html=1;" edge="1" parent="oojq5FccZAZtyJ_p-6VT-727" source="oojq5FccZAZtyJ_p-6VT-744" target="oojq5FccZAZtyJ_p-6VT-745">
          <mxGeometry relative="1" as="geometry" />
        </mxCell>
        <mxCell id="oojq5FccZAZtyJ_p-6VT-749" value="for (int i = 0; i &amp;lt; 256; i++)" style="edgeLabel;html=1;align=center;verticalAlign=middle;resizable=0;points=[];" vertex="1" connectable="0" parent="oojq5FccZAZtyJ_p-6VT-746">
          <mxGeometry x="0.3183" y="-1" relative="1" as="geometry">
            <mxPoint as="offset" />
          </mxGeometry>
        </mxCell>
        <mxCell id="oojq5FccZAZtyJ_p-6VT-755" style="edgeStyle=orthogonalEdgeStyle;rounded=0;orthogonalLoop=1;jettySize=auto;html=1;exitX=0;exitY=0.5;exitDx=0;exitDy=0;entryX=0;entryY=0.5;entryDx=0;entryDy=0;" edge="1" parent="oojq5FccZAZtyJ_p-6VT-727" source="oojq5FccZAZtyJ_p-6VT-744" target="oojq5FccZAZtyJ_p-6VT-756">
          <mxGeometry relative="1" as="geometry">
            <mxPoint x="29.208620689655106" y="376.8620689655172" as="targetPoint" />
          </mxGeometry>
        </mxCell>
        <mxCell id="oojq5FccZAZtyJ_p-6VT-744" value="Free Character Stroke Data Loop Start" style="whiteSpace=wrap;html=1;rounded=1;" vertex="1" parent="oojq5FccZAZtyJ_p-6VT-727">
          <mxGeometry x="59" y="142.75" width="215.67" height="35" as="geometry" />
        </mxCell>
        <mxCell id="oojq5FccZAZtyJ_p-6VT-748" value="" style="edgeStyle=orthogonalEdgeStyle;rounded=0;orthogonalLoop=1;jettySize=auto;html=1;" edge="1" parent="oojq5FccZAZtyJ_p-6VT-727" source="oojq5FccZAZtyJ_p-6VT-745" target="oojq5FccZAZtyJ_p-6VT-747">
          <mxGeometry relative="1" as="geometry" />
        </mxCell>
        <mxCell id="oojq5FccZAZtyJ_p-6VT-750" value="if (font-&amp;gt;characters[i].strokes)" style="edgeLabel;html=1;align=center;verticalAlign=middle;resizable=0;points=[];" vertex="1" connectable="0" parent="oojq5FccZAZtyJ_p-6VT-748">
          <mxGeometry x="0.0465" relative="1" as="geometry">
            <mxPoint as="offset" />
          </mxGeometry>
        </mxCell>
        <mxCell id="oojq5FccZAZtyJ_p-6VT-745" value="Check Character Strokes Existence" style="whiteSpace=wrap;html=1;rounded=1;" vertex="1" parent="oojq5FccZAZtyJ_p-6VT-727">
          <mxGeometry x="59" y="205.75" width="215.67" height="35" as="geometry" />
        </mxCell>
        <mxCell id="oojq5FccZAZtyJ_p-6VT-751" style="edgeStyle=orthogonalEdgeStyle;rounded=0;orthogonalLoop=1;jettySize=auto;html=1;exitX=0.5;exitY=1;exitDx=0;exitDy=0;entryX=1;entryY=0.5;entryDx=0;entryDy=0;" edge="1" parent="oojq5FccZAZtyJ_p-6VT-727" source="oojq5FccZAZtyJ_p-6VT-747" target="oojq5FccZAZtyJ_p-6VT-744">
          <mxGeometry relative="1" as="geometry">
            <mxPoint x="160.0689655172414" y="360.78448275862047" as="targetPoint" />
            <Array as="points">
              <mxPoint x="167" y="323.75" />
              <mxPoint x="295" y="323.75" />
              <mxPoint x="295" y="159.75" />
            </Array>
          </mxGeometry>
        </mxCell>
        <mxCell id="oojq5FccZAZtyJ_p-6VT-752" value="free(font-&amp;gt;characters[i].strokes); &lt;br&gt;font-&amp;gt;characters[i].strokes = NULL;" style="edgeLabel;html=1;align=center;verticalAlign=middle;resizable=0;points=[];" vertex="1" connectable="0" parent="oojq5FccZAZtyJ_p-6VT-751">
          <mxGeometry x="-0.1887" y="-1" relative="1" as="geometry">
            <mxPoint x="-59" y="7" as="offset" />
          </mxGeometry>
        </mxCell>
        <mxCell id="oojq5FccZAZtyJ_p-6VT-753" value="i++" style="edgeLabel;html=1;align=center;verticalAlign=middle;resizable=0;points=[];" vertex="1" connectable="0" parent="oojq5FccZAZtyJ_p-6VT-751">
          <mxGeometry x="0.4275" y="-2" relative="1" as="geometry">
            <mxPoint as="offset" />
          </mxGeometry>
        </mxCell>
        <mxCell id="oojq5FccZAZtyJ_p-6VT-747" value="Free Stroke Data for Character" style="whiteSpace=wrap;html=1;rounded=1;" vertex="1" parent="oojq5FccZAZtyJ_p-6VT-727">
          <mxGeometry x="59" y="268.75" width="215.67" height="31.25" as="geometry" />
        </mxCell>
        <mxCell id="oojq5FccZAZtyJ_p-6VT-758" value="" style="edgeStyle=orthogonalEdgeStyle;rounded=0;orthogonalLoop=1;jettySize=auto;html=1;" edge="1" parent="oojq5FccZAZtyJ_p-6VT-727" source="oojq5FccZAZtyJ_p-6VT-756" target="oojq5FccZAZtyJ_p-6VT-757">
          <mxGeometry relative="1" as="geometry" />
        </mxCell>
        <mxCell id="oojq5FccZAZtyJ_p-6VT-756" value="Free FontData Structure" style="whiteSpace=wrap;html=1;rounded=1;" vertex="1" parent="oojq5FccZAZtyJ_p-6VT-727">
          <mxGeometry x="44.45" y="365" width="143.55" height="27" as="geometry" />
        </mxCell>
        <mxCell id="oojq5FccZAZtyJ_p-6VT-757" value="EOF" style="whiteSpace=wrap;html=1;rounded=1;" vertex="1" parent="oojq5FccZAZtyJ_p-6VT-727">
          <mxGeometry x="268" y="365" width="39" height="27" as="geometry" />
        </mxCell>
        <mxCell id="oojq5FccZAZtyJ_p-6VT-759" value="free(font);" style="text;html=1;align=center;verticalAlign=middle;resizable=0;points=[];autosize=1;strokeColor=none;fillColor=none;" vertex="1" parent="oojq5FccZAZtyJ_p-6VT-727">
          <mxGeometry x="81.22999999999996" y="389" width="70" height="26" as="geometry" />
        </mxCell>
        <mxCell id="oojq5FccZAZtyJ_p-6VT-732" style="edgeStyle=orthogonalEdgeStyle;rounded=0;orthogonalLoop=1;jettySize=auto;html=1;exitX=0.5;exitY=1;exitDx=0;exitDy=0;" edge="1" parent="1" source="oojq5FccZAZtyJ_p-6VT-729">
          <mxGeometry relative="1" as="geometry">
            <mxPoint x="190.913043478261" y="5792.304347826088" as="targetPoint" />
          </mxGeometry>
        </mxCell>
        <mxCell id="oojq5FccZAZtyJ_p-6VT-729" value="Return Program Success" style="whiteSpace=wrap;html=1;rounded=1;fillColor=#cdeb8b;strokeColor=#36393d;" vertex="1" parent="1">
          <mxGeometry x="118.33000000000001" y="5715" width="145" height="35" as="geometry" />
        </mxCell>
        <mxCell id="oojq5FccZAZtyJ_p-6VT-733" value="&lt;b&gt;&lt;font style=&quot;font-size: 16px;&quot;&gt;EOF&lt;/font&gt;&lt;/b&gt;" style="whiteSpace=wrap;html=1;rounded=1;fillColor=#e51400;strokeColor=#B20000;fontColor=#ffffff;" vertex="1" parent="1">
          <mxGeometry x="162.08" y="5793" width="57.5" height="35" as="geometry" />
        </mxCell>
        <mxCell id="oojq5FccZAZtyJ_p-6VT-762" value="Call: storeFontData()" style="swimlane;whiteSpace=wrap;html=1;fillColor=#76608a;strokeColor=#432D57;fontColor=#ffffff;" vertex="1" parent="1">
          <mxGeometry x="44" y="-337" width="688" height="1281" as="geometry" />
        </mxCell>
        <mxCell id="oojq5FccZAZtyJ_p-6VT-763" value="" style="edgeStyle=orthogonalEdgeStyle;rounded=0;orthogonalLoop=1;jettySize=auto;html=1;entryX=0;entryY=0.5;entryDx=0;entryDy=0;exitX=1;exitY=0.5;exitDx=0;exitDy=0;" edge="1" parent="oojq5FccZAZtyJ_p-6VT-762">
          <mxGeometry relative="1" as="geometry">
            <mxPoint x="228.7499999999999" y="476.86" as="sourcePoint" />
            <mxPoint x="282.5" y="476.86" as="targetPoint" />
          </mxGeometry>
        </mxCell>
        <mxCell id="oojq5FccZAZtyJ_p-6VT-764" value="NO" style="edgeLabel;html=1;align=center;verticalAlign=middle;resizable=0;points=[];" vertex="1" connectable="0" parent="oojq5FccZAZtyJ_p-6VT-763">
          <mxGeometry x="-0.5555" y="-1" relative="1" as="geometry">
            <mxPoint x="11" y="-1" as="offset" />
          </mxGeometry>
        </mxCell>
        <mxCell id="oojq5FccZAZtyJ_p-6VT-765" value="Is memory allocation successful?" style="rhombus;whiteSpace=wrap;html=1;rounded=1;shadow=0;fillColor=#f5f5f5;fontColor=#333333;strokeColor=#666666;" vertex="1" parent="oojq5FccZAZtyJ_p-6VT-762">
          <mxGeometry x="58" y="443" width="172.25" height="68" as="geometry" />
        </mxCell>
        <mxCell id="oojq5FccZAZtyJ_p-6VT-766" style="edgeStyle=orthogonalEdgeStyle;rounded=0;orthogonalLoop=1;jettySize=auto;html=1;exitX=0.5;exitY=0;exitDx=0;exitDy=0;entryX=0;entryY=0.5;entryDx=0;entryDy=0;" edge="1" parent="oojq5FccZAZtyJ_p-6VT-762" source="oojq5FccZAZtyJ_p-6VT-767" target="oojq5FccZAZtyJ_p-6VT-819">
          <mxGeometry relative="1" as="geometry">
            <mxPoint x="390" y="377.5000000000002" as="targetPoint" />
            <Array as="points">
              <mxPoint x="370" y="447" />
              <mxPoint x="370" y="273" />
            </Array>
          </mxGeometry>
        </mxCell>
        <mxCell id="oojq5FccZAZtyJ_p-6VT-767" value="&lt;span style=&quot;color: rgb(51, 51, 51);&quot;&gt;printf: &quot;[ERROR]&amp;nbsp; Memory allocation failed for FontData&quot;&lt;/span&gt;" style="whiteSpace=wrap;html=1;rounded=1;shadow=0;fillColor=#f8cecc;strokeColor=#b85450;strokeWidth=2;" vertex="1" parent="oojq5FccZAZtyJ_p-6VT-762">
          <mxGeometry x="284" y="447" width="177.25" height="60" as="geometry" />
        </mxCell>
        <mxCell id="oojq5FccZAZtyJ_p-6VT-771" style="edgeStyle=orthogonalEdgeStyle;rounded=0;orthogonalLoop=1;jettySize=auto;html=1;exitX=0.5;exitY=1;exitDx=0;exitDy=0;entryX=0.5;entryY=0;entryDx=0;entryDy=0;" edge="1" parent="oojq5FccZAZtyJ_p-6VT-762" source="oojq5FccZAZtyJ_p-6VT-773" target="oojq5FccZAZtyJ_p-6VT-774">
          <mxGeometry relative="1" as="geometry" />
        </mxCell>
        <mxCell id="oojq5FccZAZtyJ_p-6VT-772" value="fscanf" style="edgeLabel;html=1;align=center;verticalAlign=middle;resizable=0;points=[];" vertex="1" connectable="0" parent="oojq5FccZAZtyJ_p-6VT-771">
          <mxGeometry x="-0.4437" y="-1" relative="1" as="geometry">
            <mxPoint y="9" as="offset" />
          </mxGeometry>
        </mxCell>
        <mxCell id="oojq5FccZAZtyJ_p-6VT-773" value="Read font data" style="rounded=1;whiteSpace=wrap;html=1;" vertex="1" parent="oojq5FccZAZtyJ_p-6VT-762">
          <mxGeometry x="95.62" y="279" width="97" height="32" as="geometry" />
        </mxCell>
        <mxCell id="oojq5FccZAZtyJ_p-6VT-774" value="Allocate memory for FontData" style="rounded=1;whiteSpace=wrap;html=1;" vertex="1" parent="oojq5FccZAZtyJ_p-6VT-762">
          <mxGeometry x="79.75" y="359" width="128.75" height="37" as="geometry" />
        </mxCell>
        <mxCell id="oojq5FccZAZtyJ_p-6VT-775" style="edgeStyle=orthogonalEdgeStyle;rounded=0;orthogonalLoop=1;jettySize=auto;html=1;exitX=0.5;exitY=1;exitDx=0;exitDy=0;" edge="1" parent="oojq5FccZAZtyJ_p-6VT-762" source="oojq5FccZAZtyJ_p-6VT-774" target="oojq5FccZAZtyJ_p-6VT-765">
          <mxGeometry relative="1" as="geometry">
            <mxPoint x="141.72000000000025" y="459" as="targetPoint" />
          </mxGeometry>
        </mxCell>
        <mxCell id="oojq5FccZAZtyJ_p-6VT-776" value="calloc(1, FontData)" style="edgeLabel;html=1;align=center;verticalAlign=middle;resizable=0;points=[];" vertex="1" connectable="0" parent="oojq5FccZAZtyJ_p-6VT-775">
          <mxGeometry x="-0.1125" relative="1" as="geometry">
            <mxPoint as="offset" />
          </mxGeometry>
        </mxCell>
        <mxCell id="oojq5FccZAZtyJ_p-6VT-777" value="" style="edgeStyle=orthogonalEdgeStyle;rounded=0;orthogonalLoop=1;jettySize=auto;html=1;" edge="1" parent="oojq5FccZAZtyJ_p-6VT-762" source="oojq5FccZAZtyJ_p-6VT-778" target="oojq5FccZAZtyJ_p-6VT-784">
          <mxGeometry relative="1" as="geometry" />
        </mxCell>
        <mxCell id="oojq5FccZAZtyJ_p-6VT-890" style="edgeStyle=orthogonalEdgeStyle;rounded=0;orthogonalLoop=1;jettySize=auto;html=1;exitX=1;exitY=0.25;exitDx=0;exitDy=0;entryX=0.5;entryY=0;entryDx=0;entryDy=0;curved=1;" edge="1" parent="oojq5FccZAZtyJ_p-6VT-762" source="oojq5FccZAZtyJ_p-6VT-778" target="oojq5FccZAZtyJ_p-6VT-807">
          <mxGeometry relative="1" as="geometry" />
        </mxCell>
        <mxCell id="oojq5FccZAZtyJ_p-6VT-891" value="&lt;span style=&quot;color: rgba(0, 0, 0, 0); font-family: monospace; font-size: 0px; text-align: start; background-color: rgb(251, 251, 251);&quot;&gt;%3CmxGraphModel%3E%3Croot%3E%3CmxCell%20id%3D%220%22%2F%3E%3CmxCell%20id%3D%221%22%20parent%3D%220%22%2F%3E%3CmxCell%20id%3D%222%22%20value%3D%22EOF%20Reached%22%20style%3D%22edgeLabel%3Bhtml%3D1%3Balign%3Dcenter%3BverticalAlign%3Dmiddle%3Bresizable%3D0%3Bpoints%3D%5B%5D%3B%22%20vertex%3D%221%22%20connectable%3D%220%22%20parent%3D%221%22%3E%3CmxGeometry%20x%3D%22617.4166666666667%22%20y%3D%22219%22%20as%3D%22geometry%22%2F%3E%3C%2FmxCell%3E%3C%2Froot%3E%3C%2FmxGraphModel%3EEOF&lt;/span&gt;" style="edgeLabel;html=1;align=center;verticalAlign=middle;resizable=0;points=[];" vertex="1" connectable="0" parent="oojq5FccZAZtyJ_p-6VT-890">
          <mxGeometry x="-0.1632" y="-85" relative="1" as="geometry">
            <mxPoint as="offset" />
          </mxGeometry>
        </mxCell>
        <mxCell id="oojq5FccZAZtyJ_p-6VT-892" value="&lt;b&gt;EOF Reached&lt;/b&gt;" style="edgeLabel;html=1;align=center;verticalAlign=middle;resizable=0;points=[];" vertex="1" connectable="0" parent="oojq5FccZAZtyJ_p-6VT-890">
          <mxGeometry x="-0.7374" y="-5" relative="1" as="geometry">
            <mxPoint as="offset" />
          </mxGeometry>
        </mxCell>
        <mxCell id="oojq5FccZAZtyJ_p-6VT-778" value="Read Next Marker" style="rounded=1;whiteSpace=wrap;html=1;" vertex="1" parent="oojq5FccZAZtyJ_p-6VT-762">
          <mxGeometry x="91.44" y="595" width="103.25" height="34" as="geometry" />
        </mxCell>
        <mxCell id="oojq5FccZAZtyJ_p-6VT-779" style="edgeStyle=orthogonalEdgeStyle;rounded=0;orthogonalLoop=1;jettySize=auto;html=1;exitX=0.5;exitY=1;exitDx=0;exitDy=0;" edge="1" parent="oojq5FccZAZtyJ_p-6VT-762" source="oojq5FccZAZtyJ_p-6VT-765" target="oojq5FccZAZtyJ_p-6VT-885">
          <mxGeometry relative="1" as="geometry">
            <mxPoint x="182" y="521" as="targetPoint" />
          </mxGeometry>
        </mxCell>
        <mxCell id="oojq5FccZAZtyJ_p-6VT-780" value="yes" style="edgeLabel;html=1;align=center;verticalAlign=middle;resizable=0;points=[];" vertex="1" connectable="0" parent="oojq5FccZAZtyJ_p-6VT-779">
          <mxGeometry x="-0.2964" y="1" relative="1" as="geometry">
            <mxPoint as="offset" />
          </mxGeometry>
        </mxCell>
        <mxCell id="oojq5FccZAZtyJ_p-6VT-822" value="" style="edgeStyle=orthogonalEdgeStyle;rounded=0;orthogonalLoop=1;jettySize=auto;html=1;" edge="1" parent="oojq5FccZAZtyJ_p-6VT-762" source="oojq5FccZAZtyJ_p-6VT-784" target="oojq5FccZAZtyJ_p-6VT-821">
          <mxGeometry relative="1" as="geometry" />
        </mxCell>
        <mxCell id="oojq5FccZAZtyJ_p-6VT-825" value="No" style="edgeLabel;html=1;align=center;verticalAlign=middle;resizable=0;points=[];" vertex="1" connectable="0" parent="oojq5FccZAZtyJ_p-6VT-822">
          <mxGeometry x="-0.2241" y="2" relative="1" as="geometry">
            <mxPoint as="offset" />
          </mxGeometry>
        </mxCell>
        <mxCell id="oojq5FccZAZtyJ_p-6VT-784" value="Does fscanf return valid &lt;br&gt;marker, ASCII, numStrokes?" style="rhombus;whiteSpace=wrap;html=1;rounded=1;fillColor=#f5f5f5;fontColor=#333333;strokeColor=#666666;" vertex="1" parent="oojq5FccZAZtyJ_p-6VT-762">
          <mxGeometry x="28.44" y="659" width="229.25" height="99" as="geometry" />
        </mxCell>
        <mxCell id="oojq5FccZAZtyJ_p-6VT-785" style="edgeStyle=orthogonalEdgeStyle;rounded=0;orthogonalLoop=1;jettySize=auto;html=1;exitX=0.5;exitY=1;exitDx=0;exitDy=0;entryX=0;entryY=0.25;entryDx=0;entryDy=0;" edge="1" parent="oojq5FccZAZtyJ_p-6VT-762" source="oojq5FccZAZtyJ_p-6VT-787" target="oojq5FccZAZtyJ_p-6VT-778">
          <mxGeometry relative="1" as="geometry">
            <Array as="points">
              <mxPoint x="149" y="1158" />
              <mxPoint x="157" y="1158" />
              <mxPoint x="157" y="1211" />
              <mxPoint x="28" y="1211" />
              <mxPoint x="28" y="604" />
            </Array>
          </mxGeometry>
        </mxCell>
        <mxCell id="oojq5FccZAZtyJ_p-6VT-786" value="Character Complete" style="edgeLabel;html=1;align=center;verticalAlign=middle;resizable=0;points=[];" vertex="1" connectable="0" parent="oojq5FccZAZtyJ_p-6VT-785">
          <mxGeometry x="-0.8014" relative="1" as="geometry">
            <mxPoint x="-70" y="4" as="offset" />
          </mxGeometry>
        </mxCell>
        <mxCell id="oojq5FccZAZtyJ_p-6VT-787" value="Add Stroke Data to Font Structure&lt;br&gt;Store numStrokes and strokeData in &lt;br&gt;font-&amp;gt;characters[ascii]" style="whiteSpace=wrap;html=1;rounded=1;" vertex="1" parent="oojq5FccZAZtyJ_p-6VT-762">
          <mxGeometry x="74.14" y="1105" width="148.73" height="85" as="geometry" />
        </mxCell>
        <mxCell id="oojq5FccZAZtyJ_p-6VT-788" value="&lt;b&gt;Return font&lt;/b&gt;" style="whiteSpace=wrap;html=1;rounded=1;fillColor=#dae8fc;strokeColor=#6c8ebf;" vertex="1" parent="oojq5FccZAZtyJ_p-6VT-762">
          <mxGeometry x="381.94" y="1194" width="73" height="36" as="geometry" />
        </mxCell>
        <mxCell id="oojq5FccZAZtyJ_p-6VT-789" value="ReadStroke" style="whiteSpace=wrap;html=1;rounded=1;" vertex="1" parent="oojq5FccZAZtyJ_p-6VT-762">
          <mxGeometry x="104.59999999999991" y="1025" width="77.5" height="25" as="geometry" />
        </mxCell>
        <mxCell id="oojq5FccZAZtyJ_p-6VT-790" style="edgeStyle=orthogonalEdgeStyle;rounded=0;orthogonalLoop=1;jettySize=auto;html=1;exitX=0;exitY=1;exitDx=0;exitDy=0;entryX=0;entryY=0;entryDx=0;entryDy=0;curved=1;" edge="1" parent="oojq5FccZAZtyJ_p-6VT-762" source="oojq5FccZAZtyJ_p-6VT-789" target="oojq5FccZAZtyJ_p-6VT-787">
          <mxGeometry relative="1" as="geometry">
            <Array as="points">
              <mxPoint x="105.12" y="1053" />
              <mxPoint x="51.12" y="1053" />
              <mxPoint x="51.12" y="1088" />
              <mxPoint x="74.12" y="1088" />
            </Array>
          </mxGeometry>
        </mxCell>
        <mxCell id="oojq5FccZAZtyJ_p-6VT-791" value="Read x,y,P" style="edgeLabel;html=1;align=center;verticalAlign=middle;resizable=0;points=[];" vertex="1" connectable="0" parent="oojq5FccZAZtyJ_p-6VT-790">
          <mxGeometry x="0.1042" y="-1" relative="1" as="geometry">
            <mxPoint x="15" y="2" as="offset" />
          </mxGeometry>
        </mxCell>
        <mxCell id="oojq5FccZAZtyJ_p-6VT-792" style="edgeStyle=orthogonalEdgeStyle;rounded=0;orthogonalLoop=1;jettySize=auto;html=1;exitX=1;exitY=0;exitDx=0;exitDy=0;entryX=1;entryY=1;entryDx=0;entryDy=0;curved=1;" edge="1" parent="oojq5FccZAZtyJ_p-6VT-762" source="oojq5FccZAZtyJ_p-6VT-787" target="oojq5FccZAZtyJ_p-6VT-789">
          <mxGeometry relative="1" as="geometry">
            <Array as="points">
              <mxPoint x="223.12" y="1094" />
              <mxPoint x="209.12" y="1094" />
              <mxPoint x="209.12" y="1066" />
              <mxPoint x="182.12" y="1066" />
            </Array>
          </mxGeometry>
        </mxCell>
        <mxCell id="oojq5FccZAZtyJ_p-6VT-793" value="More strokes for Char" style="edgeLabel;html=1;align=center;verticalAlign=middle;resizable=0;points=[];" vertex="1" connectable="0" parent="oojq5FccZAZtyJ_p-6VT-792">
          <mxGeometry x="-0.1238" y="2" relative="1" as="geometry">
            <mxPoint as="offset" />
          </mxGeometry>
        </mxCell>
        <mxCell id="oojq5FccZAZtyJ_p-6VT-798" value="Read Stroke Data" style="whiteSpace=wrap;html=1;rounded=1;" vertex="1" parent="oojq5FccZAZtyJ_p-6VT-762">
          <mxGeometry x="80.63" y="798" width="124.88" height="25" as="geometry" />
        </mxCell>
        <mxCell id="oojq5FccZAZtyJ_p-6VT-799" value="AllocateStrokes" style="whiteSpace=wrap;html=1;rounded=1;" vertex="1" parent="oojq5FccZAZtyJ_p-6VT-762">
          <mxGeometry x="95.30999999999997" y="955" width="95.5" height="27" as="geometry" />
        </mxCell>
        <mxCell id="oojq5FccZAZtyJ_p-6VT-800" style="edgeStyle=orthogonalEdgeStyle;rounded=0;orthogonalLoop=1;jettySize=auto;html=1;exitX=0.5;exitY=1;exitDx=0;exitDy=0;entryX=0.5;entryY=0;entryDx=0;entryDy=0;" edge="1" parent="oojq5FccZAZtyJ_p-6VT-762" source="oojq5FccZAZtyJ_p-6VT-798" target="oojq5FccZAZtyJ_p-6VT-827">
          <mxGeometry relative="1" as="geometry">
            <mxPoint x="256.94" y="817" as="targetPoint" />
          </mxGeometry>
        </mxCell>
        <mxCell id="oojq5FccZAZtyJ_p-6VT-801" value="New Character" style="edgeLabel;html=1;align=center;verticalAlign=middle;resizable=0;points=[];" vertex="1" connectable="0" parent="oojq5FccZAZtyJ_p-6VT-800">
          <mxGeometry x="-0.1185" y="-1" relative="1" as="geometry">
            <mxPoint x="-3" y="-205" as="offset" />
          </mxGeometry>
        </mxCell>
        <mxCell id="oojq5FccZAZtyJ_p-6VT-802" value="" style="edgeStyle=orthogonalEdgeStyle;rounded=0;orthogonalLoop=1;jettySize=auto;html=1;curved=1;entryX=0.5;entryY=0;entryDx=0;entryDy=0;exitX=0.5;exitY=1;exitDx=0;exitDy=0;" edge="1" parent="oojq5FccZAZtyJ_p-6VT-762" source="oojq5FccZAZtyJ_p-6VT-799" target="oojq5FccZAZtyJ_p-6VT-789">
          <mxGeometry relative="1" as="geometry">
            <mxPoint x="339.94" y="1164.5" as="targetPoint" />
          </mxGeometry>
        </mxCell>
        <mxCell id="oojq5FccZAZtyJ_p-6VT-803" value="calloc(numStrokes,Stroke)" style="edgeLabel;html=1;align=center;verticalAlign=middle;resizable=0;points=[];" vertex="1" connectable="0" parent="oojq5FccZAZtyJ_p-6VT-802">
          <mxGeometry x="-0.0643" y="-3" relative="1" as="geometry">
            <mxPoint x="13" as="offset" />
          </mxGeometry>
        </mxCell>
        <mxCell id="oojq5FccZAZtyJ_p-6VT-804" value="" style="edgeStyle=orthogonalEdgeStyle;rounded=0;orthogonalLoop=1;jettySize=auto;html=1;curved=1;exitX=0.5;exitY=1;exitDx=0;exitDy=0;" edge="1" parent="oojq5FccZAZtyJ_p-6VT-762">
          <mxGeometry relative="1" as="geometry">
            <mxPoint x="142.835" y="757.9999999999995" as="sourcePoint" />
            <mxPoint x="142.5671428571429" y="796" as="targetPoint" />
          </mxGeometry>
        </mxCell>
        <mxCell id="oojq5FccZAZtyJ_p-6VT-805" value="Read &quot;999 ASCII STROKES&quot;" style="edgeLabel;html=1;align=center;verticalAlign=middle;resizable=0;points=[];" vertex="1" connectable="0" parent="oojq5FccZAZtyJ_p-6VT-804">
          <mxGeometry x="-0.1593" relative="1" as="geometry">
            <mxPoint x="7" y="76" as="offset" />
          </mxGeometry>
        </mxCell>
        <mxCell id="oojq5FccZAZtyJ_p-6VT-826" value="Yes" style="edgeLabel;html=1;align=center;verticalAlign=middle;resizable=0;points=[];" vertex="1" connectable="0" parent="oojq5FccZAZtyJ_p-6VT-804">
          <mxGeometry x="-0.2506" relative="1" as="geometry">
            <mxPoint as="offset" />
          </mxGeometry>
        </mxCell>
        <mxCell id="oojq5FccZAZtyJ_p-6VT-806" style="edgeStyle=orthogonalEdgeStyle;rounded=0;orthogonalLoop=1;jettySize=auto;html=1;exitX=0.5;exitY=1;exitDx=0;exitDy=0;entryX=0.5;entryY=0;entryDx=0;entryDy=0;curved=1;" edge="1" parent="oojq5FccZAZtyJ_p-6VT-762" source="oojq5FccZAZtyJ_p-6VT-807" target="oojq5FccZAZtyJ_p-6VT-788">
          <mxGeometry relative="1" as="geometry" />
        </mxCell>
        <mxCell id="oojq5FccZAZtyJ_p-6VT-807" value="Close File" style="whiteSpace=wrap;html=1;rounded=1;" vertex="1" parent="oojq5FccZAZtyJ_p-6VT-762">
          <mxGeometry x="620" y="806" width="64" height="30" as="geometry" />
        </mxCell>
        <mxCell id="oojq5FccZAZtyJ_p-6VT-808" style="edgeStyle=orthogonalEdgeStyle;rounded=0;orthogonalLoop=1;jettySize=auto;html=1;exitX=0.5;exitY=1;exitDx=0;exitDy=0;entryX=0.506;entryY=0.082;entryDx=0;entryDy=0;entryPerimeter=0;" edge="1" parent="oojq5FccZAZtyJ_p-6VT-762" source="oojq5FccZAZtyJ_p-6VT-809" target="oojq5FccZAZtyJ_p-6VT-811">
          <mxGeometry relative="1" as="geometry">
            <mxPoint x="225.6200000000001" y="215.73331705729163" as="targetPoint" />
            <mxPoint x="225.6200000000001" y="177" as="sourcePoint" />
          </mxGeometry>
        </mxCell>
        <mxCell id="oojq5FccZAZtyJ_p-6VT-809" value="Open&amp;nbsp;&lt;br&gt;font file" style="rounded=0;whiteSpace=wrap;html=1;fillColor=#f5f5f5;strokeColor=#666666;fontColor=#333333;" vertex="1" parent="oojq5FccZAZtyJ_p-6VT-762">
          <mxGeometry x="69.72" y="27" width="86.86" height="47" as="geometry" />
        </mxCell>
        <mxCell id="oojq5FccZAZtyJ_p-6VT-810" style="edgeStyle=orthogonalEdgeStyle;rounded=0;orthogonalLoop=1;jettySize=auto;html=1;exitX=1;exitY=0.5;exitDx=0;exitDy=0;entryX=0;entryY=0.5;entryDx=0;entryDy=0;" edge="1" parent="oojq5FccZAZtyJ_p-6VT-762" source="oojq5FccZAZtyJ_p-6VT-811" target="oojq5FccZAZtyJ_p-6VT-812">
          <mxGeometry relative="1" as="geometry">
            <mxPoint x="110.99999999999997" y="208.53336588541663" as="targetPoint" />
          </mxGeometry>
        </mxCell>
        <mxCell id="oojq5FccZAZtyJ_p-6VT-815" style="edgeStyle=orthogonalEdgeStyle;rounded=0;orthogonalLoop=1;jettySize=auto;html=1;exitX=0;exitY=0.5;exitDx=0;exitDy=0;curved=1;" edge="1" parent="oojq5FccZAZtyJ_p-6VT-762" source="oojq5FccZAZtyJ_p-6VT-811" target="oojq5FccZAZtyJ_p-6VT-773">
          <mxGeometry relative="1" as="geometry" />
        </mxCell>
        <mxCell id="oojq5FccZAZtyJ_p-6VT-811" value="Does file open?" style="rhombus;whiteSpace=wrap;html=1;rounded=1;shadow=0;fillColor=#f5f5f5;fontColor=#333333;strokeColor=#666666;" vertex="1" parent="oojq5FccZAZtyJ_p-6VT-762">
          <mxGeometry x="53.99999999999997" y="99" width="114" height="68" as="geometry" />
        </mxCell>
        <mxCell id="oojq5FccZAZtyJ_p-6VT-817" style="edgeStyle=orthogonalEdgeStyle;rounded=0;orthogonalLoop=1;jettySize=auto;html=1;exitX=1;exitY=0.5;exitDx=0;exitDy=0;entryX=0;entryY=0.5;entryDx=0;entryDy=0;" edge="1" parent="oojq5FccZAZtyJ_p-6VT-762" source="oojq5FccZAZtyJ_p-6VT-819" target="oojq5FccZAZtyJ_p-6VT-818">
          <mxGeometry relative="1" as="geometry">
            <mxPoint x="569.5" y="212" as="targetPoint" />
          </mxGeometry>
        </mxCell>
        <mxCell id="oojq5FccZAZtyJ_p-6VT-812" value="printf: &quot;[ERROR] Failed to open font file&quot;" style="rounded=1;whiteSpace=wrap;html=1;fillColor=#f8cecc;strokeColor=#b85450;" vertex="1" parent="oojq5FccZAZtyJ_p-6VT-762">
          <mxGeometry x="201.9999999999999" y="119.5" width="332.86" height="27" as="geometry" />
        </mxCell>
        <mxCell id="oojq5FccZAZtyJ_p-6VT-813" value="no" style="text;html=1;align=center;verticalAlign=middle;resizable=0;points=[];autosize=1;strokeColor=none;fillColor=none;" vertex="1" parent="oojq5FccZAZtyJ_p-6VT-762">
          <mxGeometry x="170.99999999999997" y="139" width="31" height="26" as="geometry" />
        </mxCell>
        <mxCell id="oojq5FccZAZtyJ_p-6VT-814" value="yes" style="text;html=1;align=center;verticalAlign=middle;resizable=0;points=[];autosize=1;strokeColor=none;fillColor=none;" vertex="1" parent="oojq5FccZAZtyJ_p-6VT-762">
          <mxGeometry x="32.71999999999987" y="216" width="37" height="26" as="geometry" />
        </mxCell>
        <mxCell id="oojq5FccZAZtyJ_p-6VT-816" value="if (!fPtr)" style="text;html=1;align=center;verticalAlign=middle;resizable=0;points=[];autosize=1;strokeColor=none;fillColor=none;" vertex="1" parent="oojq5FccZAZtyJ_p-6VT-762">
          <mxGeometry x="79.75" y="136" width="57" height="26" as="geometry" />
        </mxCell>
        <mxCell id="oojq5FccZAZtyJ_p-6VT-818" value="&lt;b&gt;Return NULL&lt;/b&gt;" style="rounded=1;whiteSpace=wrap;html=1;fillColor=#f8cecc;strokeColor=#b85450;" vertex="1" parent="oojq5FccZAZtyJ_p-6VT-762">
          <mxGeometry x="480" y="258.5" width="86" height="28" as="geometry" />
        </mxCell>
        <mxCell id="oojq5FccZAZtyJ_p-6VT-819" value="Close file" style="rounded=1;whiteSpace=wrap;html=1;" vertex="1" parent="oojq5FccZAZtyJ_p-6VT-762">
          <mxGeometry x="390" y="254" width="62" height="37" as="geometry" />
        </mxCell>
        <mxCell id="oojq5FccZAZtyJ_p-6VT-820" value="" style="edgeStyle=orthogonalEdgeStyle;rounded=0;orthogonalLoop=1;jettySize=auto;html=1;exitX=0.5;exitY=1;exitDx=0;exitDy=0;entryX=0;entryY=0.5;entryDx=0;entryDy=0;" edge="1" parent="oojq5FccZAZtyJ_p-6VT-762" source="oojq5FccZAZtyJ_p-6VT-812" target="oojq5FccZAZtyJ_p-6VT-819">
          <mxGeometry relative="1" as="geometry">
            <mxPoint x="1687" y="-68" as="targetPoint" />
            <mxPoint x="1589" y="-68" as="sourcePoint" />
            <Array as="points">
              <mxPoint x="370" y="146" />
              <mxPoint x="370" y="273" />
            </Array>
          </mxGeometry>
        </mxCell>
        <mxCell id="oojq5FccZAZtyJ_p-6VT-824" style="edgeStyle=orthogonalEdgeStyle;rounded=0;orthogonalLoop=1;jettySize=auto;html=1;exitX=0.5;exitY=0;exitDx=0;exitDy=0;entryX=1;entryY=0.5;entryDx=0;entryDy=0;curved=1;" edge="1" parent="oojq5FccZAZtyJ_p-6VT-762" source="oojq5FccZAZtyJ_p-6VT-821" target="oojq5FccZAZtyJ_p-6VT-778">
          <mxGeometry relative="1" as="geometry">
            <mxPoint x="474.86857142857156" y="708.7142857142858" as="targetPoint" />
            <Array as="points">
              <mxPoint x="386" y="640" />
              <mxPoint x="195" y="640" />
            </Array>
          </mxGeometry>
        </mxCell>
        <mxCell id="oojq5FccZAZtyJ_p-6VT-821" value="Skip Invalid Font Entry" style="whiteSpace=wrap;html=1;rounded=1;" vertex="1" parent="oojq5FccZAZtyJ_p-6VT-762">
          <mxGeometry x="313.94" y="695.25" width="143.63" height="26.5" as="geometry" />
        </mxCell>
        <mxCell id="oojq5FccZAZtyJ_p-6VT-828" style="edgeStyle=orthogonalEdgeStyle;rounded=0;orthogonalLoop=1;jettySize=auto;html=1;exitX=1;exitY=0.5;exitDx=0;exitDy=0;" edge="1" parent="oojq5FccZAZtyJ_p-6VT-762" source="oojq5FccZAZtyJ_p-6VT-827">
          <mxGeometry relative="1" as="geometry">
            <mxPoint x="282.6066666666665" y="889.3809523809523" as="targetPoint" />
          </mxGeometry>
        </mxCell>
        <mxCell id="oojq5FccZAZtyJ_p-6VT-829" value="INVALID" style="edgeLabel;html=1;align=center;verticalAlign=middle;resizable=0;points=[];" vertex="1" connectable="0" parent="oojq5FccZAZtyJ_p-6VT-828">
          <mxGeometry x="-0.2058" relative="1" as="geometry">
            <mxPoint as="offset" />
          </mxGeometry>
        </mxCell>
        <mxCell id="oojq5FccZAZtyJ_p-6VT-887" style="edgeStyle=orthogonalEdgeStyle;rounded=0;orthogonalLoop=1;jettySize=auto;html=1;exitX=0.5;exitY=1;exitDx=0;exitDy=0;" edge="1" parent="oojq5FccZAZtyJ_p-6VT-762" source="oojq5FccZAZtyJ_p-6VT-827" target="oojq5FccZAZtyJ_p-6VT-799">
          <mxGeometry relative="1" as="geometry" />
        </mxCell>
        <mxCell id="oojq5FccZAZtyJ_p-6VT-888" value="if (!readSuccess" style="edgeLabel;html=1;align=center;verticalAlign=middle;resizable=0;points=[];" vertex="1" connectable="0" parent="oojq5FccZAZtyJ_p-6VT-887">
          <mxGeometry x="-0.3346" y="-1" relative="1" as="geometry">
            <mxPoint as="offset" />
          </mxGeometry>
        </mxCell>
        <mxCell id="oojq5FccZAZtyJ_p-6VT-827" value="Validate Stroke Data" style="rhombus;whiteSpace=wrap;html=1;rounded=1;fillColor=#f5f5f5;fontColor=#333333;strokeColor=#666666;" vertex="1" parent="oojq5FccZAZtyJ_p-6VT-762">
          <mxGeometry x="66.56" y="870" width="153" height="39" as="geometry" />
        </mxCell>
        <mxCell id="oojq5FccZAZtyJ_p-6VT-962" style="edgeStyle=orthogonalEdgeStyle;rounded=0;orthogonalLoop=1;jettySize=auto;html=1;exitX=0.25;exitY=0;exitDx=0;exitDy=0;curved=1;" edge="1" parent="oojq5FccZAZtyJ_p-6VT-762" source="oojq5FccZAZtyJ_p-6VT-882" target="oojq5FccZAZtyJ_p-6VT-821">
          <mxGeometry relative="1" as="geometry" />
        </mxCell>
        <mxCell id="oojq5FccZAZtyJ_p-6VT-882" value="printf(Error: Failed to allocate memory for strokes of ASCII %d)" style="rounded=1;whiteSpace=wrap;html=1;fillColor=#f5f5f5;strokeColor=#666666;fontColor=#333333;" vertex="1" parent="oojq5FccZAZtyJ_p-6VT-762">
          <mxGeometry x="285.94" y="876" width="337.06" height="27" as="geometry" />
        </mxCell>
        <mxCell id="oojq5FccZAZtyJ_p-6VT-886" style="edgeStyle=orthogonalEdgeStyle;rounded=0;orthogonalLoop=1;jettySize=auto;html=1;exitX=0.5;exitY=1;exitDx=0;exitDy=0;entryX=0.5;entryY=0;entryDx=0;entryDy=0;" edge="1" parent="oojq5FccZAZtyJ_p-6VT-762" source="oojq5FccZAZtyJ_p-6VT-885" target="oojq5FccZAZtyJ_p-6VT-778">
          <mxGeometry relative="1" as="geometry" />
        </mxCell>
        <mxCell id="oojq5FccZAZtyJ_p-6VT-885" value="printf(Loading font data...)" style="rounded=1;whiteSpace=wrap;html=1;fillColor=#f5f5f5;fontColor=#333333;strokeColor=#666666;" vertex="1" parent="oojq5FccZAZtyJ_p-6VT-762">
          <mxGeometry x="65.37" y="547" width="157.5" height="25" as="geometry" />
        </mxCell>
        <mxCell id="oojq5FccZAZtyJ_p-6VT-963" style="edgeStyle=orthogonalEdgeStyle;rounded=0;orthogonalLoop=1;jettySize=auto;html=1;exitX=1;exitY=0.5;exitDx=0;exitDy=0;entryX=0;entryY=0.5;entryDx=0;entryDy=0;" edge="1" parent="1" source="oojq5FccZAZtyJ_p-6VT-818" target="oojq5FccZAZtyJ_p-6VT-13">
          <mxGeometry relative="1" as="geometry" />
        </mxCell>
        <mxCell id="oojq5FccZAZtyJ_p-6VT-988" value="" style="endArrow=classic;html=1;rounded=0;" edge="1" parent="1">
          <mxGeometry width="50" height="50" relative="1" as="geometry">
            <mxPoint x="194" y="5123" as="sourcePoint" />
            <mxPoint x="194" y="5177" as="targetPoint" />
          </mxGeometry>
        </mxCell>
        <mxCell id="oojq5FccZAZtyJ_p-6VT-989" value="" style="endArrow=classic;html=1;rounded=0;entryX=0.408;entryY=0.14;entryDx=0;entryDy=0;entryPerimeter=0;" edge="1" parent="1" target="oojq5FccZAZtyJ_p-6VT-990">
          <mxGeometry width="50" height="50" relative="1" as="geometry">
            <mxPoint x="397" y="5124" as="sourcePoint" />
            <mxPoint x="401" y="5183" as="targetPoint" />
          </mxGeometry>
        </mxCell>
        <mxCell id="oojq5FccZAZtyJ_p-6VT-992" value="" style="endArrow=none;html=1;rounded=0;" edge="1" parent="1" target="oojq5FccZAZtyJ_p-6VT-990">
          <mxGeometry width="50" height="50" relative="1" as="geometry">
            <mxPoint x="421" y="5228" as="sourcePoint" />
            <mxPoint x="439" y="5255" as="targetPoint" />
          </mxGeometry>
        </mxCell>
      </root>
    </mxGraphModel>
  </diagram>
</mxfile>
